<svg viewBox="0 0 256 219"
   xmlns="http://www.w3.org/2000/svg" width="256" height="219" preserveAspectRatio="xMidYMid">
   <path fill="#fff" d="m87.118 170.045 21.896-46.068c-16.724-3.552-33.551-13.897-43.068-26.482L43.05 145.63c12.723 10.793 27.999 19.276 44.068 24.414"/>
   <path fill="#fff" d="M178.495 96.115c-11 13.483-26.275 23.483-42.62 27.379l21.827 45.93c15.931-5.38 30.827-14.069 43.69-25.206l-22.897-48.103Z"/>
   <path fill="#fff" d="M43.05 145.631 31.602 169.7c-5.828 12.241-1.449 27.31 10.551 33.689 12.724 6.758 28.379 1.483 34.517-11.38l10.448-21.964A130.635 130.635 0 0 1 43.05 145.63"/>
   <path fill="#fff" d="M223.942 43.565a25.137 25.137 0 0 0-29.585 19.723c-2.414 12.07-8.069 23.31-15.862 32.862l22.862 48.137c21.103-18.31 36.688-43.24 42.275-71.137 2.724-13.655-6.104-26.896-19.69-29.585"/>
   <path fill="#fff" d="M135.875 123.494c-4.896 1.172-9.896 1.793-14.896 1.793-3.896 0-7.93-.448-11.965-1.31-16.724-3.552-33.551-13.897-43.068-26.482-2.38-3.138-4.31-6.414-5.655-9.759-5.207-12.862-19.862-19.068-32.724-13.896C14.705 79.047 8.5 93.702 13.671 106.563c5.896 14.62 16.31 28.034 29.379 39.068a130.48 130.48 0 0 0 44.033 24.414c11.069 3.551 22.551 5.517 33.862 5.517 12.551 0 24.93-2.173 36.723-6.138l-21.793-45.93Z"/>
   <path fill="#fff" d="m213.425 169.596-12.068-25.378-22.862-48.103-.034.035s0-.035.034-.035l-33.24-69.93a25.144 25.144 0 0 0-22.69-14.344c-9.69 0-18.517 5.586-22.689 14.345L65.98 97.495c9.517 12.585 26.344 22.93 43.068 26.482l10.965-23.034c1.035-2.173 4.138-2.173 5.173 0l10.724 22.551h.069-.07l21.828 45.93 10.724 22.551a25.103 25.103 0 0 0 22.723 14.345c2.242 0 4.483-.31 6.69-.931 15.138-4.173 22.31-21.586 15.551-35.793"/>
</svg>