<svg width="120" height="120" viewBox="0 0 120 120" fill="none" xmlns="http://www.w3.org/2000/svg">
<rect width="120" height="120" rx="17" fill="white"/>
<g clip-path="url(#clip0_26_104)">
<path d="M24.0637 63.8639C23.8648 63.8731 23.6697 63.8078 23.518 63.6799C23.3885 63.5263 23.3283 63.3266 23.3515 63.1279V44.3599C23.3283 44.1612 23.3885 43.9615 23.518 43.8079C23.6715 43.692 23.8621 43.6368 24.0545 43.6515H26.108C26.4965 43.6129 26.8461 43.8843 26.9035 44.2679L27.107 45.0039C27.698 44.4363 28.3964 43.9891 29.1605 43.6883C29.9421 43.3737 30.7774 43.2108 31.621 43.2099C33.3026 43.1547 34.9103 43.899 35.95 45.2155C37.0951 46.785 37.664 48.6977 37.5595 50.6343C37.5909 52.0401 37.3199 53.4357 36.764 54.7283C36.3052 55.8047 35.5596 56.7367 34.6087 57.4239C33.6893 58.0477 32.595 58.3697 31.4822 58.3439C30.7265 58.3476 29.9754 58.2234 29.2622 57.9759C28.6064 57.7569 28.0005 57.4129 27.477 56.9639V63.1463C27.4973 63.3432 27.4418 63.541 27.3197 63.6983C27.1615 63.8197 26.9627 63.8749 26.7647 63.8547L24.0637 63.8639ZM30.289 55.2527C31.2029 55.318 32.0872 54.9114 32.6292 54.1763C33.2055 53.1477 33.4663 51.9738 33.3785 50.7999C33.4673 49.6149 33.2101 48.43 32.6385 47.3867C32.0946 46.6443 31.201 46.2367 30.2797 46.3103C29.302 46.3112 28.3437 46.5743 27.5047 47.0739V54.4799C28.3372 54.9951 29.2992 55.2656 30.2797 55.2619L30.289 55.2527Z" fill="#00A8E1"/>
<path d="M41.0745 58.0497C40.7434 58.1113 40.4242 57.8942 40.3623 57.5639C40.3484 57.4903 40.3484 57.4149 40.3623 57.3413V44.3601C40.3391 44.1614 40.3993 43.9617 40.5288 43.8081C40.6823 43.6922 40.8729 43.637 41.0653 43.6517H43.1095C43.498 43.613 43.8477 43.8844 43.905 44.2681L44.275 45.7769C44.8827 45.0694 45.6089 44.4714 46.421 44.0105C47.0833 43.6655 47.8196 43.4861 48.567 43.4861H48.9648C49.1655 43.4686 49.3662 43.5238 49.529 43.6425C49.6585 43.7961 49.7186 43.9958 49.6955 44.1945V46.5681C49.7112 46.7594 49.6557 46.949 49.5383 47.1017C49.3838 47.2305 49.1831 47.2903 48.9833 47.2673H48.4745C48.2645 47.2673 48 47.2673 47.679 47.2673C47.1444 47.2783 46.6116 47.34 46.088 47.4513C45.5423 47.5516 45.0095 47.7089 44.497 47.9205V57.3505C44.5118 57.5418 44.4563 57.7314 44.3398 57.8841C44.1853 58.0129 43.9846 58.0727 43.7848 58.0497H41.0745Z" fill="#00A8E1"/>
<path d="M53.7932 41.4068C53.1624 41.4381 52.5436 41.2274 52.0635 40.818C51.6176 40.4031 51.3781 39.8143 51.4067 39.208C51.3753 38.598 51.6149 38.0055 52.0635 37.5888C53.0773 36.7819 54.5184 36.7819 55.5322 37.5888C55.9781 38.0037 56.2177 38.5925 56.189 39.1988C56.2177 39.8051 55.9781 40.3939 55.5322 40.8088C55.0512 41.2237 54.4287 41.4381 53.7932 41.4068ZM52.4335 58.0588C52.1023 58.1204 51.7832 57.9033 51.7212 57.573C51.7074 57.4994 51.7074 57.424 51.7212 57.3504V44.36C51.6981 44.1613 51.7582 43.9616 51.8877 43.808C52.0413 43.6921 52.2318 43.6369 52.4242 43.6516H55.153C55.3509 43.6313 55.5498 43.6865 55.708 43.808C55.8301 43.9653 55.8856 44.1631 55.8652 44.36V57.3504C55.881 57.5417 55.8255 57.7313 55.708 57.884C55.5535 58.0128 55.3528 58.0726 55.153 58.0496L52.4335 58.0588Z" fill="#00A8E1"/>
<path d="M60.0925 58.0496C59.7614 58.1112 59.4423 57.8941 59.3803 57.5638C59.3664 57.4902 59.3664 57.4148 59.3803 57.3412V44.36C59.3572 44.1612 59.4173 43.9616 59.5468 43.808C59.7003 43.692 59.8909 43.6368 60.0833 43.6516H62.1275C62.516 43.6129 62.8657 43.8843 62.923 44.268L63.1543 45.0316C63.996 44.4547 64.9062 43.9855 65.8645 43.6332C66.6554 43.359 67.487 43.2164 68.325 43.21C69.7828 43.0858 71.1833 43.8006 71.9325 45.05C72.7771 44.4722 73.6947 44.0085 74.6613 43.67C75.5141 43.3875 76.4077 43.2449 77.3068 43.2468C78.4427 43.1787 79.5564 43.578 80.387 44.3508C81.1529 45.1861 81.547 46.2947 81.4785 47.4236V57.3504C81.4933 57.5417 81.4378 57.7312 81.3213 57.884C81.1668 58.0128 80.9661 58.0726 80.7663 58.0496H78.0745C77.7434 58.1112 77.4243 57.8941 77.3623 57.5638C77.3484 57.4902 77.3484 57.4148 77.3623 57.3412V48.2884C77.3623 47.0068 76.786 46.3656 75.6325 46.3656C74.5577 46.3775 73.4986 46.6296 72.5338 47.1016V57.3504C72.5495 57.5417 72.494 57.7312 72.3765 57.884C72.2221 58.0128 72.0213 58.0726 71.8215 58.0496H69.102C68.7709 58.1112 68.4518 57.8941 68.3898 57.5638C68.3759 57.4902 68.3759 57.4148 68.3898 57.3412V48.2884C68.3898 47.0068 67.8135 46.3656 66.66 46.3656C65.5722 46.372 64.5011 46.6342 63.5335 47.1292V57.3412C63.5483 57.5325 63.4928 57.722 63.3763 57.8748C63.2218 58.0036 63.0211 58.0634 62.8213 58.0404L60.0925 58.0496Z" fill="#00A8E1"/>
<path d="M91.376 58.4729C89.3826 58.6026 87.4244 57.9071 85.9648 56.5501C84.63 55.0302 83.9631 53.0421 84.1148 51.0301C83.9816 48.9444 84.6568 46.8864 86.0018 45.2801C87.4031 43.8412 89.3651 43.0785 91.376 43.1917C92.8634 43.1034 94.3323 43.5551 95.5108 44.4613C96.5079 45.3077 97.0574 46.5635 97 47.8653C97.0675 49.1395 96.4561 50.3557 95.3905 51.0669C93.9558 51.882 92.3121 52.2592 90.6638 52.1525C89.7295 52.1635 88.7971 52.0586 87.8888 51.8397C87.8943 52.8572 88.3069 53.8306 89.0358 54.5445C89.8988 55.1535 90.9496 55.4433 92.005 55.3633C92.5212 55.3633 93.0373 55.3292 93.5498 55.2621C94.2546 55.1535 94.9521 55.0054 95.6403 54.8205H95.8068H95.9455C96.2665 54.8205 96.4265 55.0385 96.4265 55.4737V56.7709C96.4441 56.9908 96.3997 57.2106 96.297 57.4057C96.1657 57.5593 95.9918 57.6706 95.7975 57.7277C94.3823 58.2456 92.8838 58.4986 91.376 58.4729ZM90.451 49.6133C91.179 49.6657 91.907 49.513 92.5508 49.1717C92.9929 48.8708 93.2427 48.3602 93.2075 47.8285C93.2075 46.6444 92.498 46.0529 91.08 46.0529C89.2605 46.0529 88.2097 47.1633 87.9258 49.3833C88.7518 49.5406 89.5917 49.6179 90.4325 49.6133H90.451Z" fill="#00A8E1"/>
<path d="M89.8867 73.9011C81.7837 79.8443 70.0362 82.9999 59.926 82.9999C46.4154 83.0717 33.3637 78.1285 23.3237 69.1355C22.5652 68.4547 23.2405 67.5255 24.1562 68.0499C35.3099 74.3841 47.9334 77.7108 60.777 77.7007C70.3609 77.6501 79.8413 75.7209 88.675 72.0243C90.081 71.4447 91.228 72.8799 89.8867 73.9011Z" fill="#00A8E1"/>
<path d="M93.3 70.12C92.264 68.8044 86.455 69.4944 83.8372 69.8072C83.0417 69.8992 82.9122 69.2184 83.6337 68.7216C88.2587 65.4832 95.8715 66.4216 96.7502 67.5072C97.629 68.5928 96.519 76.1644 92.1252 79.78C91.4592 80.332 90.821 80.0376 91.117 79.3016C92.1067 76.8268 94.299 71.3988 93.3 70.12Z" fill="#00A8E1"/>
</g>
<defs>
<clipPath id="clip0_26_104">
<rect width="74" height="46" fill="white" transform="translate(23 37)"/>
</clipPath>
</defs>
</svg>
