<svg width="120" height="120" viewBox="0 0 120 120" fill="none" xmlns="http://www.w3.org/2000/svg">
<rect width="120" height="120" rx="17" fill="white"/>
<g clip-path="url(#clip0_26_83)">
<path d="M77.7866 66.4211C76.5969 66.6956 73.4659 66.8537 73.4659 66.8537L73.0694 68.1015C73.0694 68.1015 74.6308 67.9684 75.7708 68.0848C75.7708 68.0848 76.1426 68.0432 76.1839 68.5091C76.2004 68.9416 76.1508 69.4075 76.1508 69.4075C76.1508 69.4075 76.126 69.6903 75.7295 69.7569C75.2999 69.8317 72.3589 69.9399 72.3589 69.9399L71.8797 71.562C71.8797 71.562 71.7063 71.9363 72.1028 71.8282C72.4746 71.7284 75.556 71.1461 75.9608 71.2292C76.3904 71.3374 76.8696 71.9114 76.7291 72.4438C76.5639 73.0926 73.4907 75.0724 71.6154 74.931C71.6154 74.931 70.6323 74.9976 69.7979 73.6583C69.0213 72.3855 70.0953 69.9648 70.0953 69.9648C70.0953 69.9648 69.6079 68.8335 69.9631 68.4592C69.9631 68.4592 70.1779 68.2678 70.7892 68.2179L71.541 66.6457C71.541 66.6457 70.6819 66.7039 70.1697 66.0717C69.6905 65.4645 69.6575 65.19 70.0209 65.0236C70.4092 64.8323 73.9864 64.1751 76.4482 64.2583C76.4482 64.2583 77.3074 64.1751 78.0427 65.6724C78.0344 65.6724 78.3979 66.2797 77.7866 66.4211ZM68.5257 72.4604C68.2117 73.2091 67.3773 74.0077 66.3447 73.5085C65.3203 73.0094 63.6928 69.657 63.6928 69.657C63.6928 69.657 63.0732 68.4092 62.9575 68.4342C62.9575 68.4342 62.8254 68.193 62.7428 69.5572C62.6601 70.9215 62.7593 73.5751 62.2223 73.991C61.7101 74.4069 61.0905 74.2406 60.7683 73.7498C60.4792 73.2673 60.3552 72.1193 60.5122 70.1062C60.7022 68.0931 61.1648 65.9469 61.7597 65.2731C62.3545 64.6077 62.8336 65.0901 63.0154 65.2648C63.0154 65.2648 63.8085 65.9885 65.122 68.1181L65.3533 68.5091C65.3533 68.5091 66.5429 70.5222 66.6669 70.5139C66.6669 70.5139 66.766 70.6054 66.8486 70.5388C66.9725 70.5055 66.923 69.8567 66.923 69.8567C66.923 69.8567 66.6751 67.6689 65.5929 63.9588C65.5929 63.9588 65.4277 63.493 65.5433 63.0604C65.6507 62.6195 66.0886 62.8275 66.0886 62.8275C66.0886 62.8275 67.7739 63.676 68.5835 66.4377C69.3848 69.2245 68.8396 71.7117 68.5257 72.4604ZM60.2478 65.3646C60.1074 65.6475 60.0248 66.0551 59.3143 66.1632C59.3143 66.1632 52.5153 66.6291 52.1931 67.1116C52.1931 67.1116 51.9535 67.3944 52.3253 67.4776C52.697 67.5524 54.2336 67.7604 54.9771 67.802C55.7702 67.8103 58.4469 67.8353 59.4052 69.0415C59.4052 69.0415 59.9752 69.6154 59.9504 70.9131C59.9257 72.2441 59.6943 72.71 59.1821 73.1924C58.6452 73.6416 54.0354 75.7213 51.0613 72.5269C51.0613 72.5269 49.6899 70.988 51.5322 69.8234C51.5322 69.8234 52.8623 69.0165 56.2411 69.9648C56.2411 69.9648 57.2655 70.3392 57.216 70.7135C57.1581 71.1128 56.3733 71.537 55.2332 71.5121C54.1262 71.4788 53.3166 70.9464 53.4736 71.0296C53.6223 71.0878 52.284 70.3808 51.8709 70.8632C51.4578 71.3041 51.557 71.5786 51.9618 71.8531C52.9944 72.4438 56.9846 72.2358 58.1743 70.9048C58.1743 70.9048 58.6452 70.3641 57.9264 69.9232C57.2077 69.5073 55.1506 69.2577 54.3493 69.2162C53.581 69.1746 50.7226 69.2245 50.3095 68.4592C50.3095 68.4592 49.8965 67.9434 50.3508 66.4793C50.83 64.9487 54.1593 64.3581 55.5967 64.225C55.5967 64.225 59.5539 64.0836 60.2809 64.8988C60.2726 64.8988 60.3718 65.0901 60.2478 65.3646ZM49.0125 74.3404C48.5333 74.6981 47.5172 74.54 47.2281 74.1408C46.9389 73.7831 46.8398 72.3606 46.8976 70.1312C46.9554 67.8769 47.005 65.0818 47.4842 64.6409C47.9964 64.1917 48.3103 64.5827 48.5086 64.8905C48.7234 65.19 48.9795 65.5227 49.0373 66.2298C49.0868 66.9369 49.2521 70.6469 49.2521 70.6469C49.2521 70.6469 49.4669 73.991 49.0125 74.3404ZM50.0452 62.3783C48.649 62.8441 47.6907 62.6861 46.8811 62.3367C46.5259 62.9606 46.3193 63.1519 46.0467 63.1935C45.6502 63.2351 45.2949 62.5946 45.2288 62.3866C45.1627 62.2285 44.9727 61.9623 45.204 61.3301C44.411 60.6147 44.3531 59.6498 44.4853 59.0009C44.6836 58.2523 46.0219 55.4073 50.0947 55.0746C50.0947 55.0746 52.0857 54.9248 52.4244 55.9979H52.4822C52.4822 55.9979 54.4154 56.0062 54.3741 57.7365C54.3493 59.4751 52.2261 61.6379 50.0452 62.3783ZM46.245 58.5268C45.8319 59.1923 45.8154 59.5916 46.0054 59.8661C46.4763 59.1423 47.3355 58.0027 48.5994 57.1376C47.6246 57.2208 46.8067 57.645 46.245 58.5268ZM51.8709 57.4121C50.5904 57.6034 48.6077 59.3337 47.6659 60.7478C49.1116 61.014 51.6644 60.9142 52.7962 58.5933C52.7879 58.5933 53.3332 57.1542 51.8709 57.4121ZM86.6344 70.8133C85.8661 72.1609 83.7099 74.9726 80.835 74.3154C79.8849 76.6363 79.0918 78.9738 78.6375 82.4843C78.6375 82.4843 78.5383 83.1664 77.9766 82.9252C77.4231 82.7255 76.4978 81.7939 76.3161 80.5045C76.1178 78.8075 76.8696 75.9376 78.3979 72.6517C77.9518 71.9197 77.6461 70.8715 77.9105 69.3825C77.9105 69.3825 78.2988 66.6208 81.0498 64.1252C81.0498 64.1252 81.3802 63.834 81.5702 63.9255C81.785 64.017 81.6859 64.9154 81.5124 65.348C81.3389 65.7806 80.108 67.9268 80.108 67.9268C80.108 67.9268 79.3397 69.3742 79.5545 70.5139C81.0002 68.2762 84.2882 63.7592 86.3287 65.1816C87.0144 65.6724 87.3283 66.7455 87.3283 67.9018C87.3201 68.925 87.0805 70.0064 86.6344 70.8133ZM86.0396 67.2696C86.0396 67.2696 85.9239 66.3795 85.0648 67.3611C84.3212 68.1846 82.9829 69.7402 81.9007 71.8448C83.0325 71.72 84.123 71.0962 84.4534 70.78C84.9904 70.2976 86.2379 68.9999 86.0396 67.2696ZM45.931 68.4009C45.7741 70.414 45.0058 73.7997 39.5616 75.4717C35.9679 76.5615 32.5725 76.0374 30.722 75.5632C30.6807 76.3036 30.5981 76.6197 30.4824 76.7445C30.3255 76.9025 29.1524 77.5846 28.508 76.6197C28.2188 76.1622 28.0701 75.3303 27.9875 74.59C23.8238 72.66 21.9072 69.8816 21.8329 69.7569C21.742 69.6654 20.7919 68.6671 21.742 67.4443C22.6342 66.3379 25.5504 65.2316 28.1775 64.7823C28.2684 62.5197 28.5328 60.8144 28.8467 60.0324C29.2267 59.1257 29.7059 59.9409 30.1189 60.5565C30.4659 61.014 30.6724 62.9855 30.689 64.5577C32.4073 64.4746 33.4234 64.5993 35.3401 64.9487C37.835 65.4062 39.5038 66.6873 39.3551 68.1431C39.2477 69.5739 37.9424 70.1645 37.4467 70.2061C36.9262 70.2477 36.1166 69.8733 36.1166 69.8733C35.5631 69.6071 36.0753 69.3742 36.7445 69.0831C37.4715 68.7254 37.3063 68.3593 37.3063 68.3593C37.0336 67.5608 33.7952 67.0034 30.5733 67.0034C30.5568 68.7919 30.6477 71.7616 30.689 73.4919C32.9443 73.9245 34.6296 73.8413 34.6296 73.8413C34.6296 73.8413 42.8578 73.6084 43.1057 68.3177C43.3618 63.0188 34.9022 57.9362 28.6484 56.3223C22.4029 54.6753 18.8671 55.8232 18.5614 55.9813C18.2309 56.1477 18.5366 56.1976 18.5366 56.1976C18.5366 56.1976 18.8753 56.2475 19.4619 56.4471C20.0815 56.6468 19.6023 56.9712 19.6023 56.9712C18.5366 57.3123 17.3387 57.096 17.1074 56.6052C16.8761 56.1144 17.2644 55.6735 17.7105 55.0413C18.1566 54.3758 18.644 54.4008 18.644 54.4008C26.3683 51.7055 35.7779 56.5802 35.7779 56.5802C44.5927 61.0806 46.0963 66.3546 45.931 68.4009ZM22.6177 68.1264C21.742 68.559 22.3451 69.1829 22.3451 69.1829C23.9891 70.9631 26.0131 72.0777 27.938 72.7682C28.161 69.6986 28.128 68.6172 28.1527 67.07C25.1456 67.2779 23.4108 67.7604 22.6177 68.1264Z" fill="#01147C"/>
<path d="M102.992 67.4941V68.5921C102.992 68.8334 102.802 69.0247 102.562 69.0247H97.3658C97.3658 69.2992 97.3741 69.5404 97.3741 69.765C97.3741 71.3872 97.308 72.7098 97.151 74.1988C97.1262 74.4234 96.9445 74.5898 96.7297 74.5898H95.6062C95.4905 74.5898 95.3831 74.5399 95.3088 74.4567C95.2344 74.3735 95.1931 74.2571 95.2096 74.1406C95.3666 72.6599 95.4409 71.3539 95.4409 69.765C95.4409 69.5321 95.4409 69.2909 95.4327 69.0247H90.2942C90.0546 69.0247 89.8646 68.8334 89.8646 68.5921V67.4941C89.8646 67.2528 90.0546 67.0615 90.2942 67.0615H95.3583C95.2509 65.273 95.0361 63.5511 94.6892 61.8041C94.6726 61.696 94.6974 61.5879 94.7635 61.5047C94.8296 61.4215 94.9287 61.3716 95.0361 61.3716H96.2505C96.4405 61.3716 96.5975 61.5047 96.6388 61.696C96.9775 63.5011 97.1923 65.2564 97.2997 67.0615H102.562C102.793 67.0615 102.992 67.2611 102.992 67.4941Z" fill="#01147C"/>
<path d="M95.9201 58.7845C93.2352 52.138 88.6997 46.473 82.8012 42.3969C76.7622 38.2293 69.6823 36.0249 62.3297 36.0249C50.1691 36.0249 38.8842 42.1058 32.1512 52.2961C32.0769 52.4042 32.0604 52.5456 32.1017 52.6704C32.143 52.8035 32.2421 52.895 32.366 52.9366L33.3078 53.261C33.3656 53.2776 33.4235 53.286 33.473 53.286C33.6465 53.286 33.8117 53.1945 33.9109 53.053C37.0006 48.4778 41.1808 44.6762 46.0054 42.0476C50.987 39.3357 56.6294 37.8966 62.3214 37.8966C69.2031 37.8966 75.8369 39.943 81.5207 43.8028C87.064 47.5711 91.3681 52.8368 93.9704 59.0175C94.0448 59.2005 94.2265 59.3253 94.4248 59.3253H95.5483C95.6805 59.3253 95.8044 59.2587 95.8705 59.1506C95.9531 59.0424 95.9697 58.9093 95.9201 58.7845ZM33.473 53.0031H33.4896C33.4896 53.0031 33.4813 53.0031 33.473 53.0031ZM94.1935 59.1755C94.2183 59.1922 94.2431 59.2088 94.2678 59.2171C94.2431 59.2005 94.2183 59.1922 94.1935 59.1755Z" fill="url(#paint0_radial_26_83)"/>
</g>
<defs>
<radialGradient id="paint0_radial_26_83" cx="0" cy="0" r="1" gradientUnits="userSpaceOnUse" gradientTransform="translate(94.8646 59.2833) scale(62.796 63.2316)">
<stop offset="0.007" stop-color="#021192"/>
<stop offset="0.03" stop-color="#021096"/>
<stop offset="0.057" stop-color="#010CB4"/>
<stop offset="0.084" stop-color="#0008CE"/>
<stop offset="0.111" stop-color="#0006D7"/>
<stop offset="0.138" stop-color="#0004E1"/>
<stop offset="0.165" stop-color="#0001FA"/>
<stop offset="0.191" stop-color="#0000FE"/>
<stop offset="0.216" stop-color="#0F1EFF"/>
<stop offset="1" stop-color="#00FFFF" stop-opacity="0"/>
</radialGradient>
<clipPath id="clip0_26_83">
<rect width="86" height="47" fill="white" transform="translate(17 36)"/>
</clipPath>
</defs>
</svg>
