<svg width="120" height="120" viewBox="0 0 120 120" fill="none" xmlns="http://www.w3.org/2000/svg">
<g clip-path="url(#clip0_26_20)">
<rect width="120" height="120" rx="17" fill="white"/>
<path d="M52.992 56.5857C52.8693 51.0031 48.9431 48.0513 44.1336 48.0513C41.4957 48.0513 39.1155 48.9406 37.496 50.6697C35.8764 48.9406 33.4962 48.0513 30.8584 48.0513C26.0488 48.0513 22.1227 51.0155 22 56.598C22 56.6104 22 56.6227 22 56.6351V69.3687C22 70.542 22.9447 71.4807 24.098 71.4807H26.0856C26.2819 71.4807 26.4414 71.3201 26.4414 71.1225V56.6227C26.5273 53.8685 28.4659 52.4111 30.8584 52.4111C33.2508 52.4111 35.1894 53.8685 35.2753 56.6227V69.3564C35.2753 70.5297 36.22 71.4683 37.3733 71.4683H39.3609C39.5572 71.4683 39.7167 71.3078 39.7167 71.1102V56.6104C39.8026 53.8562 41.7411 52.3988 44.1336 52.3988C46.5261 52.3988 48.4646 53.8562 48.5505 56.6104V69.344C48.5505 70.5173 49.4953 71.456 50.6486 71.456H52.6362C52.8325 71.456 52.992 71.2954 52.992 71.0978V56.598C53.0042 56.6104 52.992 56.598 52.992 56.5857ZM97.7377 48.4095H94.3637C93.4312 48.4095 92.5601 48.8788 92.0325 49.6569L88.3027 55.2148C87.8119 55.9434 86.7568 55.9434 86.266 55.2148L82.5362 49.6569C82.0209 48.8788 81.1375 48.4095 80.205 48.4095H76.831C76.6224 48.4095 76.4997 48.6441 76.6102 48.8171L83.2601 58.7471C83.7386 59.4634 83.7386 60.4021 83.2601 61.1184L76.6102 71.0484C76.4875 71.2213 76.6224 71.456 76.831 71.456H80.205C81.1375 71.456 82.0086 70.9867 82.5362 70.2086L86.266 64.6507C86.7568 63.922 87.8119 63.922 88.3027 64.6507L92.0325 70.2086C92.5478 70.9867 93.4312 71.456 94.3637 71.456H97.7377C97.9463 71.456 98.069 71.2213 97.9586 71.0484L91.2964 61.1308C90.8179 60.4144 90.8179 59.4758 91.2964 58.7594L97.9463 48.8294C98.069 48.6565 97.9463 48.4095 97.7377 48.4095ZM75.0888 48.4095H73.1012C72.0951 48.4095 71.2485 49.1258 71.04 50.0768C69.2732 48.7183 67.0525 48.0266 64.66 48.0266C58.8444 48.0266 54.1207 52.1024 54.1207 59.7969C54.1207 67.4914 58.8321 71.5672 64.66 71.5672C67.0402 71.5672 69.2364 70.8879 71.0031 69.554C71.1013 70.6285 71.997 71.4807 73.1012 71.4807H75.0888C75.2851 71.4807 75.4446 71.3201 75.4446 71.1225V48.7677C75.4323 48.57 75.2851 48.4095 75.0888 48.4095ZM64.66 67.195C61.1878 67.195 58.3659 64.6384 58.3659 59.8092C58.3659 54.9801 61.1878 52.4235 64.66 52.4235C68.1322 52.4235 70.9541 54.9801 70.9541 59.8092C70.9541 64.6384 68.1322 67.195 64.66 67.195Z" fill="url(#paint0_linear_26_20)"/>
<mask id="mask0_26_20" style="mask-type:luminance" maskUnits="userSpaceOnUse" x="22" y="48" width="76" height="24">
<path d="M52.992 56.5857C52.8693 51.0031 48.9431 48.0513 44.1336 48.0513C41.4957 48.0513 39.1155 48.9406 37.496 50.6697C35.8764 48.9406 33.4962 48.0513 30.8584 48.0513C26.0488 48.0513 22.1227 51.0155 22 56.598C22 56.6104 22 56.6227 22 56.6351V69.3687C22 70.542 22.9447 71.4807 24.098 71.4807H26.0856C26.2819 71.4807 26.4414 71.3201 26.4414 71.1225V56.6227C26.5273 53.8685 28.4659 52.4111 30.8584 52.4111C33.2508 52.4111 35.1894 53.8685 35.2753 56.6227V69.3564C35.2753 70.5297 36.22 71.4683 37.3733 71.4683H39.3609C39.5572 71.4683 39.7167 71.3078 39.7167 71.1102V56.6104C39.8026 53.8562 41.7411 52.3988 44.1336 52.3988C46.5261 52.3988 48.4646 53.8562 48.5505 56.6104V69.344C48.5505 70.5173 49.4953 71.456 50.6486 71.456H52.6362C52.8325 71.456 52.992 71.2954 52.992 71.0978V56.598C53.0042 56.6104 52.992 56.598 52.992 56.5857V56.5857ZM97.7377 48.4095H94.3637C93.4312 48.4095 92.5601 48.8788 92.0325 49.6569L88.3027 55.2148C87.8119 55.9434 86.7568 55.9434 86.266 55.2148L82.5362 49.6569C82.0209 48.8788 81.1375 48.4095 80.205 48.4095H76.831C76.6224 48.4095 76.4997 48.6442 76.6102 48.8171L83.2601 58.7471C83.7386 59.4634 83.7386 60.4021 83.2601 61.1184L76.6102 71.0484C76.4875 71.2213 76.6224 71.456 76.831 71.456H80.205C81.1375 71.456 82.0086 70.9867 82.5362 70.2086L86.266 64.6507C86.7568 63.922 87.8119 63.922 88.3027 64.6507L92.0325 70.2086C92.5478 70.9867 93.4312 71.456 94.3637 71.456H97.7377C97.9463 71.456 98.069 71.2213 97.9586 71.0484L91.2964 61.1308C90.8179 60.4144 90.8179 59.4758 91.2964 58.7594L97.9463 48.8294C98.069 48.6565 97.9463 48.4095 97.7377 48.4095V48.4095ZM75.0888 48.4095H73.1012C72.0951 48.4095 71.2485 49.1258 71.04 50.0768C69.2732 48.7183 67.0525 48.0266 64.66 48.0266C58.8444 48.0266 54.1207 52.1024 54.1207 59.7969C54.1207 67.4914 58.8321 71.5672 64.66 71.5672C67.0402 71.5672 69.2364 70.8879 71.0031 69.554C71.1013 70.6285 71.997 71.4807 73.1012 71.4807H75.0888C75.2851 71.4807 75.4446 71.3201 75.4446 71.1225V48.7677C75.4323 48.57 75.2851 48.4095 75.0888 48.4095V48.4095ZM64.66 67.195C61.1878 67.195 58.3659 64.6384 58.3659 59.8092C58.3659 54.9801 61.1878 52.4235 64.66 52.4235C68.1322 52.4235 70.9541 54.9801 70.9541 59.8092C70.9541 64.6384 68.1322 67.195 64.66 67.195Z" fill="white"/>
</mask>
<g mask="url(#mask0_26_20)">
<path d="M40.2934 73.2591C47.7877 73.2591 53.8631 65.2965 53.8631 55.4741C53.8631 45.6516 47.7877 37.689 40.2934 37.689C32.799 37.689 26.7237 45.6516 26.7237 55.4741C26.7237 65.2965 32.799 73.2591 40.2934 73.2591Z" fill="url(#paint1_radial_26_20)"/>
</g>
<mask id="mask1_26_20" style="mask-type:luminance" maskUnits="userSpaceOnUse" x="22" y="48" width="76" height="24">
<path d="M52.992 56.5857C52.8693 51.0031 48.9431 48.0513 44.1336 48.0513C41.4957 48.0513 39.1155 48.9406 37.496 50.6697C35.8764 48.9406 33.4962 48.0513 30.8584 48.0513C26.0488 48.0513 22.1227 51.0155 22 56.598C22 56.6104 22 56.6227 22 56.6351V69.3687C22 70.542 22.9447 71.4807 24.098 71.4807H26.0856C26.2819 71.4807 26.4414 71.3201 26.4414 71.1225V56.6227C26.5273 53.8685 28.4659 52.4111 30.8584 52.4111C33.2508 52.4111 35.1894 53.8685 35.2753 56.6227V69.3564C35.2753 70.5297 36.22 71.4683 37.3733 71.4683H39.3609C39.5572 71.4683 39.7167 71.3078 39.7167 71.1102V56.6104C39.8026 53.8562 41.7411 52.3988 44.1336 52.3988C46.5261 52.3988 48.4646 53.8562 48.5505 56.6104V69.344C48.5505 70.5173 49.4953 71.456 50.6486 71.456H52.6362C52.8325 71.456 52.992 71.2954 52.992 71.0978V56.598C53.0042 56.6104 52.992 56.598 52.992 56.5857V56.5857ZM97.7377 48.4095H94.3637C93.4312 48.4095 92.5601 48.8788 92.0325 49.6569L88.3027 55.2148C87.8119 55.9434 86.7568 55.9434 86.266 55.2148L82.5362 49.6569C82.0209 48.8788 81.1375 48.4095 80.205 48.4095H76.831C76.6224 48.4095 76.4997 48.6442 76.6102 48.8171L83.2601 58.7471C83.7386 59.4634 83.7386 60.4021 83.2601 61.1184L76.6102 71.0484C76.4875 71.2213 76.6224 71.456 76.831 71.456H80.205C81.1375 71.456 82.0086 70.9867 82.5362 70.2086L86.266 64.6507C86.7568 63.922 87.8119 63.922 88.3027 64.6507L92.0325 70.2086C92.5478 70.9867 93.4312 71.456 94.3637 71.456H97.7377C97.9463 71.456 98.069 71.2213 97.9586 71.0484L91.2964 61.1308C90.8179 60.4144 90.8179 59.4758 91.2964 58.7594L97.9463 48.8294C98.069 48.6565 97.9463 48.4095 97.7377 48.4095V48.4095ZM75.0888 48.4095H73.1012C72.0951 48.4095 71.2485 49.1258 71.04 50.0768C69.2732 48.7183 67.0525 48.0266 64.66 48.0266C58.8444 48.0266 54.1207 52.1024 54.1207 59.7969C54.1207 67.4914 58.8321 71.5672 64.66 71.5672C67.0402 71.5672 69.2364 70.8879 71.0031 69.554C71.1013 70.6285 71.997 71.4807 73.1012 71.4807H75.0888C75.2851 71.4807 75.4446 71.3201 75.4446 71.1225V48.7677C75.4323 48.57 75.2851 48.4095 75.0888 48.4095V48.4095ZM64.66 67.195C61.1878 67.195 58.3659 64.6384 58.3659 59.8092C58.3659 54.9801 61.1878 52.4235 64.66 52.4235C68.1322 52.4235 70.9541 54.9801 70.9541 59.8092C70.9541 64.6384 68.1322 67.195 64.66 67.195Z" fill="white"/>
</mask>
<g mask="url(#mask1_26_20)">
<path d="M53.814 90.1921C69.2364 90.1921 81.7387 81.2839 81.7387 70.295C81.7387 59.3062 69.2364 50.3979 53.814 50.3979C38.3916 50.3979 25.8893 59.3062 25.8893 70.295C25.8893 81.2839 38.3916 90.1921 53.814 90.1921Z" fill="url(#paint2_radial_26_20)"/>
</g>
<mask id="mask2_26_20" style="mask-type:luminance" maskUnits="userSpaceOnUse" x="22" y="48" width="76" height="24">
<path d="M52.992 56.5857C52.8693 51.0031 48.9431 48.0513 44.1336 48.0513C41.4957 48.0513 39.1155 48.9406 37.496 50.6697C35.8764 48.9406 33.4962 48.0513 30.8584 48.0513C26.0488 48.0513 22.1227 51.0155 22 56.598C22 56.6104 22 56.6227 22 56.6351V69.3687C22 70.542 22.9447 71.4807 24.098 71.4807H26.0856C26.2819 71.4807 26.4414 71.3201 26.4414 71.1225V56.6227C26.5273 53.8685 28.4659 52.4111 30.8584 52.4111C33.2508 52.4111 35.1894 53.8685 35.2753 56.6227V69.3564C35.2753 70.5297 36.22 71.4683 37.3733 71.4683H39.3609C39.5572 71.4683 39.7167 71.3078 39.7167 71.1102V56.6104C39.8026 53.8562 41.7411 52.3988 44.1336 52.3988C46.5261 52.3988 48.4646 53.8562 48.5505 56.6104V69.344C48.5505 70.5173 49.4953 71.456 50.6486 71.456H52.6362C52.8325 71.456 52.992 71.2954 52.992 71.0978V56.598C53.0042 56.6104 52.992 56.598 52.992 56.5857V56.5857ZM97.7377 48.4095H94.3637C93.4312 48.4095 92.5601 48.8788 92.0325 49.6569L88.3027 55.2148C87.8119 55.9434 86.7568 55.9434 86.266 55.2148L82.5362 49.6569C82.0209 48.8788 81.1375 48.4095 80.205 48.4095H76.831C76.6224 48.4095 76.4997 48.6442 76.6102 48.8171L83.2601 58.7471C83.7386 59.4634 83.7386 60.4021 83.2601 61.1184L76.6102 71.0484C76.4875 71.2213 76.6224 71.456 76.831 71.456H80.205C81.1375 71.456 82.0086 70.9867 82.5362 70.2086L86.266 64.6507C86.7568 63.922 87.8119 63.922 88.3027 64.6507L92.0325 70.2086C92.5478 70.9867 93.4312 71.456 94.3637 71.456H97.7377C97.9463 71.456 98.069 71.2213 97.9586 71.0484L91.2964 61.1308C90.8179 60.4144 90.8179 59.4758 91.2964 58.7594L97.9463 48.8294C98.069 48.6565 97.9463 48.4095 97.7377 48.4095V48.4095ZM75.0888 48.4095H73.1012C72.0951 48.4095 71.2485 49.1258 71.04 50.0768C69.2732 48.7183 67.0525 48.0266 64.66 48.0266C58.8444 48.0266 54.1207 52.1024 54.1207 59.7969C54.1207 67.4914 58.8321 71.5672 64.66 71.5672C67.0402 71.5672 69.2364 70.8879 71.0031 69.554C71.1013 70.6285 71.997 71.4807 73.1012 71.4807H75.0888C75.2851 71.4807 75.4446 71.3201 75.4446 71.1225V48.7677C75.4323 48.57 75.2851 48.4095 75.0888 48.4095V48.4095ZM64.66 67.195C61.1878 67.195 58.3659 64.6384 58.3659 59.8092C58.3659 54.9801 61.1878 52.4235 64.66 52.4235C68.1322 52.4235 70.9541 54.9801 70.9541 59.8092C70.9541 64.6384 68.1322 67.195 64.66 67.195Z" fill="white"/>
</mask>
<g mask="url(#mask2_26_20)">
<path d="M70.9541 64.663C79.3429 64.663 86.1434 57.8173 86.1434 49.3728C86.1434 40.9282 79.3429 34.0825 70.9541 34.0825C62.5653 34.0825 55.7648 40.9282 55.7648 49.3728C55.7648 57.8173 62.5653 64.663 70.9541 64.663Z" fill="url(#paint3_radial_26_20)"/>
</g>
</g>
<defs>
<linearGradient id="paint0_linear_26_20" x1="22.0047" y1="59.8037" x2="97.9954" y2="59.8037" gradientUnits="userSpaceOnUse">
<stop stop-color="#991EEB"/>
<stop offset="0.399" stop-color="#5822B4"/>
<stop offset="0.727" stop-color="#5822B4"/>
<stop offset="1" stop-color="#991EEB"/>
</linearGradient>
<radialGradient id="paint1_radial_26_20" cx="0" cy="0" r="1" gradientUnits="userSpaceOnUse" gradientTransform="translate(40.2987 55.4694) scale(13.5691 17.7814)">
<stop stop-color="#7BA7F2" stop-opacity="0.5"/>
<stop offset="1" stop-color="#7BA7F2" stop-opacity="0"/>
</radialGradient>
<radialGradient id="paint2_radial_26_20" cx="0" cy="0" r="1" gradientUnits="userSpaceOnUse" gradientTransform="translate(53.8089 70.2914) scale(27.9196 19.9013)">
<stop offset="0.2" stop-color="#7BA7F2"/>
<stop offset="1" stop-color="#7BA7F2" stop-opacity="0"/>
</radialGradient>
<radialGradient id="paint3_radial_26_20" cx="0" cy="0" r="1" gradientUnits="userSpaceOnUse" gradientTransform="translate(70.9523 49.3775) scale(15.186 15.2869)">
<stop stop-color="#7BA7F2"/>
<stop offset="1" stop-color="#7BA7F2" stop-opacity="0"/>
</radialGradient>
<clipPath id="clip0_26_20">
<rect width="120" height="120" rx="17" fill="white"/>
</clipPath>
</defs>
</svg>
