<svg width="120" height="120" viewBox="0 0 120 120" fill="none" xmlns="http://www.w3.org/2000/svg">
<rect width="120" height="120" rx="17" fill="white"/>
<g clip-path="url(#clip0_26_59)">
<path d="M39.4546 56.598C40.6798 57.5366 41.2932 59.0019 41.2932 60.9943V71H35.456V61.7307C35.456 61.3266 35.2951 60.9727 34.9734 60.6695C34.6516 60.3662 34.276 60.2148 33.8473 60.2148H30.446C30.0166 60.2148 29.6489 60.3663 29.343 60.6695C29.0363 60.9727 28.8833 61.3266 28.8833 61.7307V71H23V48H28.8832V55.4934C28.9752 55.4649 29.1891 55.4068 29.5268 55.3201C29.8636 55.2336 30.308 55.1903 30.8597 55.1903H34.6286C36.6201 55.1902 38.2288 55.6599 39.4546 56.598ZM57.9777 55.1902H63.8609V64.8926C63.8609 66.7118 63.3322 68.1845 62.2752 69.3107C61.218 70.4369 59.7853 71 57.9777 71H52.1863C50.164 71 48.5474 70.4735 47.3373 69.4191C46.1264 68.3653 45.5217 66.8567 45.5217 64.8927V55.1903H51.4049V64.4596C51.4049 64.8643 51.558 65.2108 51.8646 65.4991C52.1705 65.7881 52.5383 65.9323 52.9677 65.9323H56.369C56.7977 65.9323 57.1733 65.7881 57.4951 65.4991C57.8169 65.2108 57.9777 64.8642 57.9777 64.4596V55.1902ZM68.3192 48H74.2024V71H68.3192V48ZM97 55.1902V64.8926C97 66.7118 96.4713 68.1845 95.4143 69.3107C94.3572 70.4369 92.9245 71 91.1168 71H85.3714C83.3182 71 81.6864 70.4735 80.4764 69.4191C79.2655 68.3653 78.6609 66.8567 78.6609 64.8927V55.1903H84.5441V64.4596C84.5441 64.8643 84.697 65.2108 85.0037 65.4991C85.3097 65.7881 85.6774 65.9323 86.1068 65.9323H89.554C89.9828 65.9323 90.3505 65.7881 90.6571 65.4991C90.963 65.2108 91.1168 64.8642 91.1168 64.4596V55.1902H97Z" fill="#1CE783"/>
</g>
<defs>
<clipPath id="clip0_26_59">
<rect width="74" height="23" fill="white" transform="translate(23 48)"/>
</clipPath>
</defs>
</svg>
