<svg width="120" height="120" viewBox="0 0 120 120" fill="none" xmlns="http://www.w3.org/2000/svg">
<rect width="120" height="120" rx="17" fill="white"/>
<path fill-rule="evenodd" clip-rule="evenodd" d="M65.4703 25.4515L65.4434 40.7418L65.4164 56.0322L64.1584 52.4826C64.158 52.4814 64.1564 52.4769 64.156 52.4757L62.5304 86.516C64.1287 91.0295 64.985 93.4389 64.9946 93.4485C65.0072 93.4611 65.918 93.5161 67.0187 93.5707C70.3534 93.7362 74.4858 94.0908 77.6206 94.4803C78.3465 94.5704 78.9711 94.6166 79.0087 94.5829C79.0463 94.5493 79.0668 78.9809 79.0542 59.9866L79.0313 25.4515H65.4703ZM40.9421 25.406V59.9761C40.9421 78.9896 40.9607 94.5648 40.9834 94.5876C41.0062 94.6104 42.1837 94.4992 43.6001 94.3406C45.0165 94.182 46.974 93.9847 47.9501 93.9023C49.4472 93.7759 53.917 93.4885 54.4346 93.4854C54.5851 93.4844 54.5948 92.7076 54.6166 78.8429L54.6396 64.2015L55.7211 67.2614C55.8883 67.7344 55.9407 67.8821 56.1035 68.3428L57.7287 34.3109C57.3844 33.3373 57.5649 33.8484 57.1702 32.7326C55.8424 28.9783 54.7156 25.794 54.6662 25.6563L54.5764 25.406H40.9421Z" fill="#B1060F"/>
<path fill-rule="evenodd" clip-rule="evenodd" d="M40.942 25.406V44.8112L54.612 81.0728C54.6135 80.2418 54.6151 79.7928 54.6166 78.8429L54.6396 64.2015L55.7211 67.2614C61.7412 84.296 64.9756 93.4295 64.9946 93.4485C65.0072 93.4611 65.918 93.5161 67.0187 93.5707C70.3534 93.7362 74.4858 94.0908 77.6206 94.4803C78.3465 94.5704 78.9711 94.6166 79.0087 94.5829C79.0346 94.5598 79.0515 86.9263 79.0559 76.1575L65.4499 37.0401L65.4434 40.7418L65.4164 56.0322L64.1584 52.4826C62.9292 49.0143 62.1085 46.6949 57.1702 32.7326C55.8424 28.9783 54.7156 25.794 54.6662 25.6563L54.5763 25.406H40.942Z" fill="url(#paint0_radial_26_2)"/>
<path fill-rule="evenodd" clip-rule="evenodd" d="M40.9424 25.406L54.6397 64.2191V64.2015L55.7212 67.2614C61.7413 84.296 64.9757 93.4295 64.9947 93.4485C65.0073 93.4611 65.9181 93.5161 67.0188 93.5707C70.3535 93.7362 74.4859 94.0908 77.6207 94.4803C78.3429 94.57 78.9643 94.6161 79.0077 94.5834L65.4165 56.0251V56.0322L64.1585 52.4826C62.9293 49.0143 62.1086 46.6949 57.1704 32.7326C55.8425 28.9783 54.7157 25.794 54.6663 25.6563L54.5765 25.406L40.9424 25.406Z" fill="#E50914"/>
<path fill-rule="evenodd" clip-rule="evenodd" d="M65.4703 25.4515L65.4434 40.7418L65.4164 56.0322L64.1584 52.4826C64.158 52.4814 64.1564 52.4769 64.156 52.4757L62.5304 86.516C64.1287 91.0295 64.985 93.4389 64.9946 93.4485C65.0072 93.4611 65.918 93.5161 67.0187 93.5707C70.3534 93.7362 74.4858 94.0908 77.6206 94.4803C78.3465 94.5704 78.9711 94.6166 79.0087 94.5829C79.0463 94.5493 79.0668 78.9809 79.0542 59.9866L79.0313 25.4515H65.4703ZM40.9421 25.406V59.9761C40.9421 78.9896 40.9607 94.5648 40.9834 94.5876C41.0062 94.6104 42.1837 94.4992 43.6001 94.3406C45.0165 94.182 46.974 93.9847 47.9501 93.9023C49.4472 93.7759 53.917 93.4885 54.4346 93.4854C54.5851 93.4844 54.5948 92.7076 54.6166 78.8429L54.6396 64.2015L55.7211 67.2614C55.8883 67.7344 55.9407 67.8821 56.1035 68.3428L57.7287 34.3109C57.3844 33.3373 57.5649 33.8484 57.1702 32.7326C55.8424 28.9783 54.7156 25.794 54.6662 25.6563L54.5764 25.406H40.9421Z" fill="#B1060F"/>
<path fill-rule="evenodd" clip-rule="evenodd" d="M40.942 25.406V44.8112L54.612 81.0728C54.6135 80.2418 54.6151 79.7928 54.6166 78.8429L54.6396 64.2015L55.7211 67.2614C61.7412 84.296 64.9756 93.4295 64.9946 93.4485C65.0072 93.4611 65.918 93.5161 67.0187 93.5707C70.3534 93.7362 74.4858 94.0908 77.6206 94.4803C78.3465 94.5704 78.9711 94.6166 79.0087 94.5829C79.0346 94.5598 79.0515 86.9263 79.0559 76.1575L65.4499 37.0401L65.4434 40.7418L65.4164 56.0322L64.1584 52.4826C62.9292 49.0143 62.1085 46.6949 57.1702 32.7326C55.8424 28.9783 54.7156 25.794 54.6662 25.6563L54.5763 25.406H40.942Z" fill="url(#paint1_radial_26_2)"/>
<path fill-rule="evenodd" clip-rule="evenodd" d="M40.9424 25.406L54.6397 64.2191V64.2015L55.7212 67.2614C61.7413 84.296 64.9757 93.4295 64.9947 93.4485C65.0073 93.4611 65.9181 93.5161 67.0188 93.5707C70.3535 93.7362 74.4859 94.0908 77.6207 94.4803C78.3429 94.57 78.9643 94.6161 79.0077 94.5834L65.4165 56.0251V56.0322L64.1585 52.4826C62.9293 49.0143 62.1086 46.6949 57.1704 32.7326C55.8425 28.9783 54.7157 25.794 54.6663 25.6563L54.5765 25.406L40.9424 25.406Z" fill="#E50914"/>
<defs>
<radialGradient id="paint0_radial_26_2" cx="0" cy="0" r="1" gradientUnits="userSpaceOnUse" gradientTransform="translate(59.366 59.5977) rotate(-19.0977) scale(8.63874 316.429)">
<stop/>
<stop offset="1" stop-opacity="0"/>
</radialGradient>
<radialGradient id="paint1_radial_26_2" cx="0" cy="0" r="1" gradientUnits="userSpaceOnUse" gradientTransform="translate(59.366 59.5977) rotate(-19.0977) scale(8.63874 316.429)">
<stop/>
<stop offset="1" stop-opacity="0"/>
</radialGradient>
</defs>
</svg>
