<svg width="120" height="120" viewBox="0 0 120 120" fill="none" xmlns="http://www.w3.org/2000/svg">
   <rect width="120" height="120" rx="17" fill="white"/>
   <g clip-path="url(#clip0_110_2)">
      <path d="M90.6835 44.8706C90.3245 43.5386 89.621 42.3242 88.6434 41.3488C87.6658 40.3735 86.4485 39.6716 85.1134 39.3134C80.2027 38 60.5 38 60.5 38C60.5 38 40.7973 38 35.8866 39.3134C34.5515 39.6716 33.3342 40.3735 32.3566 41.3488C31.379 42.3242 30.6755 43.5386 30.3165 44.8706C29 49.77 29 60 29 60C29 60 29 70.23 30.3165 75.1294C30.6755 76.4614 31.379 77.6758 32.3566 78.6512C33.3342 79.6265 34.5515 80.3284 35.8866 80.6866C40.7973 82 60.5 82 60.5 82C60.5 82 80.2027 82 85.1134 80.6866C86.4485 80.3284 87.6658 79.6265 88.6434 78.6512C89.621 77.6758 90.3245 76.4614 90.6835 75.1294C92 70.23 92 60 92 60C92 60 91.9956 49.77 90.6835 44.8706Z" fill="#FF0000"/>
      <path d="M54.1934 69.427L70.5619 60L54.1934 50.573V69.427Z" fill="white"/>
   </g>
   <defs>
      <clipPath id="clip0_110_2">
         <rect width="63" height="44" fill="white" transform="translate(29 38)"/>
      </clipPath>
   </defs>
</svg>
