<svg width="260" height="60" viewBox="0 0 260 60" fill="none" xmlns="http://www.w3.org/2000/svg">
<g clip-path="url(#clip0_37_28)">
<g filter="url(#filter0_b_37_28)">
<rect width="260" height="60" rx="6" fill="#2E2E2E" stroke="#414141"/>
<rect x="0.5" y="0.5" width="259" height="59" rx="5.5" stroke="#414141"/>
</g>
<rect x="10" y="10" width="40" height="40" rx="7" fill="white"/>
<path d="M35.3754 32.6947C34.996 32.7823 33.9973 32.8327 33.9973 32.8327L33.8708 33.2307C33.8708 33.2307 34.3688 33.1882 34.7325 33.2254C34.7325 33.2254 34.851 33.2121 34.8642 33.3607C34.8695 33.4986 34.8537 33.6472 34.8537 33.6472C34.8537 33.6472 34.8458 33.7374 34.7193 33.7586C34.5823 33.7825 33.6442 33.817 33.6442 33.817L33.4914 34.3344C33.4914 34.3344 33.4361 34.4538 33.5626 34.4193C33.6811 34.3875 34.664 34.2017 34.7931 34.2283C34.9301 34.2628 35.0829 34.4458 35.0381 34.6156C34.9854 34.8226 34.0052 35.454 33.4071 35.4089C33.4071 35.4089 33.0935 35.4302 32.8274 35.003C32.5797 34.5971 32.9223 33.825 32.9223 33.825C32.9223 33.825 32.7668 33.4641 32.8801 33.3448C32.8801 33.3448 32.9486 33.2837 33.1436 33.2678L33.3834 32.7664C33.3834 32.7664 33.1094 32.7849 32.946 32.5833C32.7932 32.3896 32.7826 32.3021 32.8986 32.249C33.0224 32.188 34.1633 31.9784 34.9485 32.0049C34.9485 32.0049 35.2226 31.9784 35.4571 32.4559C35.4544 32.4559 35.5704 32.6496 35.3754 32.6947ZM32.4216 34.6209C32.3215 34.8597 32.0554 35.1144 31.726 34.9552C31.3993 34.796 30.8802 33.7268 30.8802 33.7268C30.8802 33.7268 30.6826 33.3288 30.6457 33.3368C30.6457 33.3368 30.6036 33.2599 30.5772 33.695C30.5509 34.1301 30.5825 34.9765 30.4112 35.1091C30.2479 35.2418 30.0502 35.1887 29.9475 35.0322C29.8553 34.8783 29.8157 34.5122 29.8658 33.8701C29.9264 33.228 30.0739 32.5435 30.2637 32.3286C30.4534 32.1163 30.6062 32.2702 30.6642 32.3259C30.6642 32.3259 30.9171 32.5568 31.3361 33.236L31.4098 33.3607C31.4098 33.3607 31.7893 34.0027 31.8288 34.0001C31.8288 34.0001 31.8604 34.0293 31.8868 34.008C31.9263 33.9974 31.9105 33.7905 31.9105 33.7905C31.9105 33.7905 31.8314 33.0927 31.4863 31.9094C31.4863 31.9094 31.4336 31.7608 31.4704 31.6228C31.5047 31.4822 31.6444 31.5486 31.6444 31.5486C31.6444 31.5486 32.1819 31.8192 32.4401 32.7C32.6957 33.5888 32.5218 34.3821 32.4216 34.6209ZM29.7815 32.3578C29.7367 32.448 29.7103 32.578 29.4837 32.6125C29.4837 32.6125 27.3152 32.7611 27.2124 32.9149C27.2124 32.9149 27.136 33.0051 27.2546 33.0317C27.3732 33.0556 27.8633 33.1219 28.1004 33.1352C28.3534 33.1378 29.2071 33.1458 29.5127 33.5305C29.5127 33.5305 29.6945 33.7135 29.6866 34.1274C29.6787 34.552 29.6049 34.7005 29.4416 34.8544C29.2703 34.9977 27.8 35.661 26.8515 34.6422C26.8515 34.6422 26.4141 34.1513 27.0017 33.7799C27.0017 33.7799 27.4259 33.5225 28.5035 33.825C28.5035 33.825 28.8303 33.9444 28.8145 34.0638C28.796 34.1911 28.5457 34.3264 28.1821 34.3185C27.829 34.3079 27.5708 34.1381 27.6209 34.1646C27.6683 34.1832 27.2414 33.9576 27.1097 34.1115C26.9779 34.2521 27.0096 34.3397 27.1387 34.4273C27.468 34.6156 28.7407 34.5493 29.1201 34.1248C29.1201 34.1248 29.2703 33.9523 29.0411 33.8117C28.8118 33.6791 28.1557 33.5995 27.9002 33.5862C27.6551 33.5729 26.7434 33.5888 26.6117 33.3448C26.6117 33.3448 26.4799 33.1803 26.6249 32.7133C26.7777 32.2251 27.8396 32.0367 28.298 31.9943C28.298 31.9943 29.5601 31.9492 29.792 32.2092C29.7894 32.2092 29.821 32.2702 29.7815 32.3578ZM26.198 35.2206C26.0452 35.3346 25.7211 35.2842 25.6289 35.1569C25.5366 35.0428 25.505 34.5891 25.5235 33.878C25.5419 33.159 25.5577 32.2676 25.7105 32.1269C25.8739 31.9837 25.974 32.1084 26.0373 32.2065C26.1058 32.3021 26.1875 32.4082 26.2059 32.6337C26.2217 32.8592 26.2744 34.0425 26.2744 34.0425C26.2744 34.0425 26.3429 35.1091 26.198 35.2206ZM26.5274 31.4053C26.0821 31.5539 25.7764 31.5034 25.5182 31.392C25.4049 31.591 25.339 31.652 25.2521 31.6653C25.1256 31.6786 25.0123 31.4743 24.9912 31.4079C24.9701 31.3575 24.9095 31.2726 24.9833 31.071C24.7304 30.8428 24.7119 30.535 24.7541 30.3281C24.8173 30.0893 25.2442 29.1819 26.5432 29.0758C26.5432 29.0758 27.1782 29.028 27.2862 29.3703H27.3047C27.3047 29.3703 27.9212 29.3729 27.9081 29.9248C27.9002 30.4793 27.223 31.1691 26.5274 31.4053ZM25.3153 30.1769C25.1836 30.3891 25.1783 30.5165 25.2389 30.604C25.3891 30.3732 25.6631 30.0097 26.0663 29.7338C25.7553 29.7603 25.4945 29.8956 25.3153 30.1769ZM27.1097 29.8213C26.7013 29.8824 26.0689 30.4342 25.7685 30.8853C26.2296 30.9702 27.0438 30.9383 27.4048 30.1981C27.4022 30.1981 27.5761 29.7391 27.1097 29.8213ZM38.1974 34.0956C37.9523 34.5254 37.2646 35.4222 36.3477 35.2126C36.0446 35.9528 35.7917 36.6984 35.6468 37.818C35.6468 37.818 35.6152 38.0356 35.436 37.9586C35.2594 37.895 34.9643 37.5978 34.9064 37.1866C34.8431 36.6453 35.0829 35.73 35.5704 34.682C35.4281 34.4485 35.3306 34.1142 35.4149 33.6393C35.4149 33.6393 35.5387 32.7584 36.4162 31.9624C36.4162 31.9624 36.5216 31.8696 36.5822 31.8988C36.6507 31.928 36.6191 32.2145 36.5637 32.3525C36.5084 32.4904 36.1158 33.1749 36.1158 33.1749C36.1158 33.1749 35.8707 33.6366 35.9392 34.0001C36.4004 33.2864 37.449 31.8457 38.0999 32.2994C38.3186 32.4559 38.4187 32.7982 38.4187 33.167C38.4161 33.4933 38.3396 33.8382 38.1974 34.0956ZM38.0076 32.9653C38.0076 32.9653 37.9708 32.6815 37.6967 32.9945C37.4596 33.2572 37.0327 33.7533 36.6876 34.4246C37.0485 34.3848 37.3963 34.1858 37.5017 34.085C37.673 33.9311 38.0709 33.5172 38.0076 32.9653ZM25.2152 33.3262C25.1651 33.9683 24.9201 35.0481 23.1837 35.5814C22.0375 35.9289 20.9545 35.7618 20.3643 35.6106C20.3512 35.8467 20.3248 35.9475 20.2879 35.9873C20.2378 36.0377 19.8637 36.2553 19.6582 35.9475C19.5659 35.8016 19.5185 35.5363 19.4922 35.3001C18.1642 34.6846 17.5529 33.7984 17.5292 33.7586C17.5002 33.7295 17.1972 33.4111 17.5002 33.0211C17.7848 32.6682 18.7149 32.3153 19.5528 32.172C19.5818 31.4504 19.6661 30.9065 19.7662 30.6571C19.8874 30.3679 20.0402 30.6279 20.172 30.8242C20.2826 30.9702 20.3485 31.599 20.3538 32.1004C20.9018 32.0739 21.2259 32.1137 21.8372 32.2251C22.633 32.371 23.1652 32.7796 23.1178 33.2439C23.0835 33.7003 22.6672 33.8887 22.5091 33.9019C22.3431 33.9152 22.0849 33.7958 22.0849 33.7958C21.9084 33.7109 22.0717 33.6366 22.2852 33.5437C22.517 33.4297 22.4643 33.3129 22.4643 33.3129C22.3774 33.0582 21.3445 32.8804 20.3169 32.8804C20.3116 33.4509 20.3406 34.3981 20.3538 34.9499C21.0731 35.0879 21.6106 35.0614 21.6106 35.0614C21.6106 35.0614 24.235 34.9871 24.314 33.2996C24.3957 31.6096 21.6976 29.9885 19.703 29.4738C17.711 28.9484 16.5832 29.3146 16.4857 29.365C16.3803 29.418 16.4778 29.434 16.4778 29.434C16.4778 29.434 16.5859 29.4499 16.773 29.5136C16.9706 29.5772 16.8177 29.6807 16.8177 29.6807C16.4778 29.7895 16.0958 29.7205 16.022 29.564C15.9482 29.4074 16.0721 29.2668 16.2144 29.0652C16.3566 28.8529 16.5121 28.8609 16.5121 28.8609C18.9757 28.0013 21.9769 29.556 21.9769 29.556C24.7883 30.9914 25.2679 32.6735 25.2152 33.3262ZM17.7795 33.2386C17.5002 33.3766 17.6925 33.5756 17.6925 33.5756C18.2169 34.1434 18.8624 34.4989 19.4764 34.7191C19.5475 33.7401 19.537 33.3952 19.5449 32.9017C18.5858 32.968 18.0324 33.1219 17.7795 33.2386Z" fill="#01147C"/>
<path d="M43.4145 33.037V33.3872C43.4145 33.4641 43.3539 33.5252 43.2775 33.5252H41.6202C41.6202 33.6127 41.6228 33.6897 41.6228 33.7613C41.6228 34.2787 41.6017 34.7005 41.5516 35.1754C41.5437 35.2471 41.4858 35.3001 41.4173 35.3001H41.0589C41.022 35.3001 40.9878 35.2842 40.9641 35.2577C40.9403 35.2311 40.9272 35.194 40.9324 35.1569C40.9825 34.6846 41.0062 34.268 41.0062 33.7613C41.0062 33.687 41.0062 33.6101 41.0036 33.5252H39.3647C39.2883 33.5252 39.2277 33.4641 39.2277 33.3872V33.037C39.2277 32.96 39.2883 32.899 39.3647 32.899H40.9799C40.9456 32.3286 40.8771 31.7794 40.7664 31.2222C40.7612 31.1877 40.7691 31.1532 40.7902 31.1267C40.8112 31.1001 40.8429 31.0842 40.8771 31.0842H41.2644C41.325 31.0842 41.3751 31.1267 41.3883 31.1877C41.4963 31.7634 41.5648 32.3233 41.5991 32.899H43.2775C43.3513 32.899 43.4145 32.9627 43.4145 33.037Z" fill="#01147C"/>
<path d="M41.1591 30.2591C40.3027 28.1392 38.8562 26.3324 36.9748 25.0323C35.0487 23.7031 32.7906 23 30.4455 23C26.567 23 22.9677 24.9395 20.8202 28.1896C20.7965 28.2241 20.7912 28.2692 20.8044 28.309C20.8176 28.3515 20.8492 28.3806 20.8887 28.3939L21.1891 28.4974C21.2076 28.5027 21.226 28.5053 21.2418 28.5053C21.2971 28.5053 21.3498 28.4762 21.3815 28.4311C22.3669 26.9718 23.7002 25.7593 25.239 24.9209C26.8278 24.056 28.6275 23.597 30.4429 23.597C32.6378 23.597 34.7536 24.2496 36.5664 25.4807C38.3344 26.6826 39.7072 28.3621 40.5372 30.3334C40.5609 30.3918 40.6189 30.4316 40.6821 30.4316H41.0405C41.0826 30.4316 41.1222 30.4103 41.1432 30.3758C41.1696 30.3413 41.1749 30.2989 41.1591 30.2591ZM21.2418 28.4151H21.2471C21.2471 28.4151 21.2444 28.4151 21.2418 28.4151ZM40.6084 30.3838C40.6163 30.3891 40.6242 30.3944 40.6321 30.3971C40.6242 30.3918 40.6163 30.3891 40.6084 30.3838Z" fill="url(#paint0_radial_37_28)"/>
<path d="M72.768 16C74.1333 16 75.328 16.2507 76.352 16.752C77.3867 17.2533 78.192 17.9573 78.768 18.864C79.344 19.76 79.632 20.8053 79.632 22C79.632 23.1947 79.344 24.2453 78.768 25.152C78.192 26.048 77.3867 26.7467 76.352 27.248C75.328 27.7493 74.1333 28 72.768 28H67.344V16H72.768ZM69.456 27.264L68.288 26.144H72.912C73.8293 26.144 74.6293 25.9733 75.312 25.632C76.0053 25.28 76.5387 24.7947 76.912 24.176C77.296 23.5467 77.488 22.8213 77.488 22C77.488 21.168 77.296 20.4427 76.912 19.824C76.5387 19.2053 76.0053 18.7253 75.312 18.384C74.6293 18.032 73.8293 17.856 72.912 17.856H68.288L69.456 16.736V27.264ZM81.4478 18.88L82.4878 19.072L83.5278 18.88V28H81.4478V18.88ZM82.4878 17.744C82.0931 17.744 81.7678 17.6373 81.5118 17.424C81.2558 17.2 81.1278 16.912 81.1278 16.56C81.1278 16.208 81.2558 15.9253 81.5118 15.712C81.7678 15.488 82.0931 15.376 82.4878 15.376C82.8931 15.376 83.2184 15.488 83.4638 15.712C83.7198 15.9253 83.8478 16.208 83.8478 16.56C83.8478 16.912 83.7198 17.2 83.4638 17.424C83.2184 17.6373 82.8931 17.744 82.4878 17.744ZM95.105 25.248C95.105 25.856 94.9343 26.384 94.593 26.832C94.2517 27.28 93.7343 27.6267 93.041 27.872C92.3477 28.1067 91.4783 28.224 90.433 28.224C89.3557 28.224 88.4223 28.0907 87.633 27.824C86.8437 27.5467 86.2303 27.1627 85.793 26.672C85.3663 26.1707 85.137 25.5947 85.105 24.944H87.217C87.281 25.2853 87.4517 25.5893 87.729 25.856C88.017 26.112 88.3903 26.3093 88.849 26.448C89.3183 26.5867 89.8517 26.656 90.449 26.656C91.313 26.656 91.9637 26.5547 92.401 26.352C92.8383 26.1387 93.057 25.8187 93.057 25.392C93.057 25.104 92.9077 24.8853 92.609 24.736C92.321 24.5867 91.7717 24.4747 90.961 24.4L89.185 24.24C88.225 24.1547 87.4677 23.984 86.913 23.728C86.3583 23.4613 85.9637 23.1413 85.729 22.768C85.4943 22.384 85.377 21.9787 85.377 21.552C85.377 20.9333 85.569 20.416 85.953 20C86.337 19.584 86.8703 19.2693 87.553 19.056C88.2357 18.832 89.0303 18.72 89.937 18.72C90.8757 18.72 91.713 18.8533 92.449 19.12C93.185 19.376 93.7717 19.7387 94.209 20.208C94.6463 20.6667 94.8917 21.2 94.945 21.808H92.833C92.7903 21.5627 92.6623 21.328 92.449 21.104C92.2463 20.8693 91.9317 20.6773 91.505 20.528C91.089 20.368 90.529 20.288 89.825 20.288C89.0783 20.288 88.4917 20.384 88.065 20.576C87.649 20.768 87.441 21.0507 87.441 21.424C87.441 21.6587 87.569 21.8613 87.825 22.032C88.081 22.192 88.5557 22.304 89.249 22.368L91.537 22.576C92.4543 22.6613 93.169 22.8267 93.681 23.072C94.2037 23.3067 94.5717 23.6107 94.785 23.984C94.9983 24.3573 95.105 24.7787 95.105 25.248ZM96.3595 18.944H98.4395L98.9835 22.208V28H96.9035V21.904L96.3595 18.944ZM102.584 18.72C103.437 18.72 104.162 18.8907 104.76 19.232C105.357 19.5733 105.81 20.064 106.12 20.704C106.44 21.3333 106.6 22.096 106.6 22.992V28H104.52V23.328C104.52 22.3787 104.296 21.664 103.848 21.184C103.41 20.6933 102.765 20.448 101.912 20.448C101.325 20.448 100.808 20.5813 100.36 20.848C99.9222 21.104 99.5808 21.4667 99.3355 21.936C99.1008 22.4053 98.9835 22.9547 98.9835 23.584L98.2475 23.184C98.3435 22.2453 98.5888 21.4453 98.9835 20.784C99.3782 20.1227 99.8848 19.616 100.504 19.264C101.122 18.9013 101.816 18.72 102.584 18.72ZM113.626 28.224C112.57 28.224 111.631 28.0267 110.81 27.632C109.989 27.2267 109.343 26.6667 108.874 25.952C108.405 25.2373 108.17 24.4053 108.17 23.456C108.17 22.5173 108.389 21.696 108.826 20.992C109.274 20.2773 109.887 19.7227 110.666 19.328C111.455 18.9227 112.357 18.72 113.37 18.72C114.383 18.72 115.258 18.9493 115.994 19.408C116.741 19.856 117.317 20.4907 117.722 21.312C118.127 22.1333 118.33 23.0987 118.33 24.208H109.802V22.624H117.29L116.25 23.216C116.218 22.6187 116.074 22.1067 115.818 21.68C115.573 21.2533 115.237 20.928 114.81 20.704C114.394 20.4693 113.898 20.352 113.322 20.352C112.714 20.352 112.181 20.4747 111.722 20.72C111.274 20.9653 110.922 21.312 110.666 21.76C110.41 22.1973 110.282 22.72 110.282 23.328C110.282 24 110.431 24.5813 110.73 25.072C111.039 25.5627 111.471 25.9413 112.026 26.208C112.591 26.464 113.258 26.592 114.026 26.592C114.719 26.592 115.429 26.4853 116.154 26.272C116.879 26.048 117.519 25.7387 118.074 25.344V26.848C117.519 27.2747 116.842 27.6107 116.042 27.856C115.253 28.1013 114.447 28.224 113.626 28.224ZM121.702 30.864C121.169 30.864 120.683 30.7947 120.246 30.656C119.819 30.528 119.419 30.3467 119.046 30.112V28.528C119.451 28.784 119.835 28.9707 120.198 29.088C120.571 29.2053 120.987 29.264 121.446 29.264C121.883 29.264 122.273 29.1627 122.614 28.96C122.955 28.768 123.238 28.4267 123.462 27.936L127.542 18.944H129.75L125.062 28.64C124.806 29.1733 124.502 29.6 124.15 29.92C123.809 30.2507 123.43 30.4907 123.014 30.64C122.609 30.7893 122.171 30.864 121.702 30.864ZM122.742 27.712L118.582 18.944H120.87L124.806 27.712H122.742ZM134.019 26.816V17.856H135.619V26.816H134.019ZM130.339 23.136V21.536H139.299V23.136H130.339Z" fill="white"/>
<path d="M69.125 45H66.8807V37.7273H69.2244C69.9299 37.7273 70.5336 37.8729 71.0355 38.1641C71.5374 38.4529 71.9221 38.8684 72.1896 39.4105C72.4571 39.9503 72.5909 40.5966 72.5909 41.3494C72.5909 42.107 72.456 42.7592 72.1861 43.3061C71.9162 43.8506 71.5232 44.2696 71.0071 44.5632C70.491 44.8544 69.8636 45 69.125 45ZM67.7614 44.2188H69.0682C69.6695 44.2188 70.1679 44.1027 70.5632 43.8707C70.9586 43.6387 71.2533 43.3085 71.4474 42.88C71.6416 42.4515 71.7386 41.9413 71.7386 41.3494C71.7386 40.7623 71.6428 40.2569 71.451 39.8331C71.2592 39.407 70.9728 39.0803 70.5916 38.853C70.2105 38.6233 69.7358 38.5085 69.1676 38.5085H67.7614V44.2188ZM77.392 42.7699V39.5455H78.2301V45H77.392V44.0767H77.3352C77.2074 44.3537 77.0085 44.5893 76.7386 44.7834C76.4688 44.9751 76.1278 45.071 75.7159 45.071C75.375 45.071 75.072 44.9964 74.8068 44.8473C74.5417 44.6958 74.3333 44.4685 74.1818 44.1655C74.0303 43.8601 73.9545 43.4754 73.9545 43.0114V39.5455H74.7926V42.9545C74.7926 43.3523 74.9039 43.6695 75.1264 43.9062C75.3513 44.143 75.6378 44.2614 75.9858 44.2614C76.1941 44.2614 76.406 44.2081 76.6214 44.1016C76.8393 43.995 77.0215 43.8317 77.1683 43.6115C77.3175 43.3913 77.392 43.1108 77.392 42.7699ZM82.052 45.1136C81.5265 45.1136 81.0731 44.9976 80.6919 44.7656C80.3132 44.5312 80.0208 44.2045 79.8148 43.7855C79.6112 43.3641 79.5094 42.8741 79.5094 42.3153C79.5094 41.7566 79.6112 41.2642 79.8148 40.8381C80.0208 40.4096 80.3072 40.0758 80.6742 39.8366C81.0435 39.5952 81.4744 39.4744 81.9668 39.4744C82.2509 39.4744 82.5314 39.5218 82.8084 39.6165C83.0854 39.7112 83.3375 39.8651 83.5648 40.0781C83.7921 40.2888 83.9732 40.5682 84.1081 40.9162C84.2431 41.2642 84.3105 41.6927 84.3105 42.2017V42.5568H80.106V41.8324H83.4583C83.4583 41.5246 83.3967 41.25 83.2736 41.0085C83.1529 40.767 82.9801 40.5765 82.7551 40.4368C82.5326 40.2971 82.2698 40.2273 81.9668 40.2273C81.633 40.2273 81.3442 40.3101 81.1003 40.4759C80.8588 40.6392 80.673 40.8523 80.5428 41.1151C80.4126 41.3778 80.3475 41.6596 80.3475 41.9602V42.4432C80.3475 42.8551 80.4185 43.2043 80.5605 43.4908C80.705 43.7749 80.905 43.9915 81.1607 44.1406C81.4164 44.2874 81.7135 44.3608 82.052 44.3608C82.2722 44.3608 82.4711 44.33 82.6486 44.2685C82.8285 44.2045 82.9836 44.1098 83.1138 43.9844C83.244 43.8565 83.3446 43.6979 83.4157 43.5085L84.2253 43.7358C84.1401 44.0104 83.9969 44.2519 83.7956 44.4602C83.5944 44.6662 83.3458 44.8272 83.0499 44.9432C82.754 45.0568 82.4213 45.1136 82.052 45.1136ZM88.3979 45V39.5455H89.236V45H88.3979ZM88.824 38.6364C88.6607 38.6364 88.5198 38.5807 88.4015 38.4695C88.2855 38.3582 88.2275 38.2244 88.2275 38.0682C88.2275 37.9119 88.2855 37.7782 88.4015 37.6669C88.5198 37.5556 88.6607 37.5 88.824 37.5C88.9874 37.5 89.1271 37.5556 89.2431 37.6669C89.3614 37.7782 89.4206 37.9119 89.4206 38.0682C89.4206 38.2244 89.3614 38.3582 89.2431 38.4695C89.1271 38.5807 88.9874 38.6364 88.824 38.6364ZM91.609 41.7188V45H90.771V39.5455H91.5806V40.3977H91.6516C91.7795 40.1207 91.9736 39.8982 92.234 39.7301C92.4944 39.5597 92.8306 39.4744 93.2425 39.4744C93.6119 39.4744 93.935 39.5502 94.212 39.7017C94.489 39.8509 94.7044 40.0781 94.8583 40.3835C95.0122 40.6866 95.0891 41.0701 95.0891 41.5341V45H94.2511V41.5909C94.2511 41.1624 94.1398 40.8286 93.9173 40.5895C93.6947 40.348 93.3893 40.2273 93.0011 40.2273C92.7335 40.2273 92.4944 40.2853 92.2837 40.4013C92.0754 40.5173 91.9109 40.6866 91.7901 40.9091C91.6694 41.1316 91.609 41.4015 91.609 41.7188ZM99.4189 45V44.3608L101.819 41.733C102.101 41.4252 102.333 41.1577 102.515 40.9304C102.698 40.7008 102.833 40.4853 102.92 40.2841C103.01 40.0805 103.055 39.8674 103.055 39.6449C103.055 39.3892 102.994 39.1679 102.871 38.9808C102.75 38.7938 102.584 38.6494 102.373 38.5476C102.163 38.4458 101.926 38.3949 101.663 38.3949C101.384 38.3949 101.14 38.4529 100.932 38.5689C100.726 38.6825 100.566 38.8423 100.452 39.0483C100.341 39.2543 100.285 39.4957 100.285 39.7727H99.4473C99.4473 39.3466 99.5455 38.9725 99.742 38.6506C99.9385 38.3286 100.206 38.0777 100.545 37.8977C100.885 37.7178 101.268 37.6278 101.692 37.6278C102.118 37.6278 102.495 37.7178 102.824 37.8977C103.153 38.0777 103.412 38.3203 103.599 38.6257C103.786 38.9311 103.879 39.2708 103.879 39.6449C103.879 39.9124 103.831 40.174 103.733 40.4297C103.639 40.683 103.473 40.9659 103.236 41.2784C103.002 41.5885 102.676 41.9673 102.26 42.4148L100.626 44.1619V44.2188H104.007V45H99.4189ZM109.138 41.7188V45H108.3V37.7273H109.138V40.3977H109.209C109.337 40.116 109.529 39.8923 109.785 39.7266C110.043 39.5585 110.386 39.4744 110.814 39.4744C111.186 39.4744 111.512 39.549 111.791 39.6982C112.07 39.8449 112.287 40.071 112.441 40.3764C112.597 40.6795 112.675 41.0653 112.675 41.5341V45H111.837V41.5909C111.837 41.1577 111.725 40.8227 111.5 40.5859C111.277 40.3468 110.968 40.2273 110.573 40.2273C110.298 40.2273 110.052 40.2853 109.834 40.4013C109.619 40.5173 109.448 40.6866 109.323 40.9091C109.2 41.1316 109.138 41.4015 109.138 41.7188ZM116.424 45.1136C115.932 45.1136 115.5 44.9964 115.128 44.7621C114.759 44.5277 114.47 44.1998 114.262 43.7784C114.056 43.357 113.953 42.8646 113.953 42.3011C113.953 41.733 114.056 41.237 114.262 40.8132C114.47 40.3894 114.759 40.0604 115.128 39.826C115.5 39.5916 115.932 39.4744 116.424 39.4744C116.917 39.4744 117.348 39.5916 117.717 39.826C118.089 40.0604 118.377 40.3894 118.583 40.8132C118.792 41.237 118.896 41.733 118.896 42.3011C118.896 42.8646 118.792 43.357 118.583 43.7784C118.377 44.1998 118.089 44.5277 117.717 44.7621C117.348 44.9964 116.917 45.1136 116.424 45.1136ZM116.424 44.3608C116.798 44.3608 117.106 44.2649 117.348 44.0732C117.589 43.8814 117.768 43.6293 117.884 43.3168C118 43.0043 118.058 42.6657 118.058 42.3011C118.058 41.9366 118 41.5968 117.884 41.282C117.768 40.9671 117.589 40.7126 117.348 40.5185C117.106 40.3243 116.798 40.2273 116.424 40.2273C116.05 40.2273 115.743 40.3243 115.501 40.5185C115.26 40.7126 115.081 40.9671 114.965 41.282C114.849 41.5968 114.791 41.9366 114.791 42.3011C114.791 42.6657 114.849 43.0043 114.965 43.3168C115.081 43.6293 115.26 43.8814 115.501 44.0732C115.743 44.2649 116.05 44.3608 116.424 44.3608ZM123.613 42.7699V39.5455H124.451V45H123.613V44.0767H123.556C123.428 44.3537 123.229 44.5893 122.959 44.7834C122.689 44.9751 122.349 45.071 121.937 45.071C121.596 45.071 121.293 44.9964 121.028 44.8473C120.762 44.6958 120.554 44.4685 120.403 44.1655C120.251 43.8601 120.175 43.4754 120.175 43.0114V39.5455H121.013V42.9545C121.013 43.3523 121.125 43.6695 121.347 43.9062C121.572 44.143 121.858 44.2614 122.206 44.2614C122.415 44.2614 122.627 44.2081 122.842 44.1016C123.06 43.995 123.242 43.8317 123.389 43.6115C123.538 43.3913 123.613 43.1108 123.613 42.7699ZM125.986 45V39.5455H126.795V40.3693H126.852C126.952 40.0994 127.132 39.8804 127.392 39.7124C127.652 39.5443 127.946 39.4602 128.273 39.4602C128.334 39.4602 128.411 39.4614 128.504 39.4638C128.596 39.4661 128.666 39.4697 128.713 39.4744V40.3267C128.685 40.3196 128.62 40.3089 128.518 40.2947C128.418 40.2782 128.313 40.2699 128.202 40.2699C127.937 40.2699 127.7 40.3255 127.491 40.4368C127.286 40.5457 127.122 40.6972 127.001 40.8913C126.883 41.0831 126.824 41.3021 126.824 41.5483V45H125.986ZM133.57 40.767L132.817 40.9801C132.77 40.8546 132.7 40.7327 132.608 40.6143C132.518 40.4936 132.395 40.3942 132.238 40.3161C132.082 40.2379 131.882 40.1989 131.638 40.1989C131.305 40.1989 131.026 40.2758 130.804 40.4297C130.584 40.5812 130.474 40.7741 130.474 41.0085C130.474 41.2169 130.549 41.3814 130.701 41.5021C130.852 41.6229 131.089 41.7235 131.411 41.804L132.221 42.0028C132.708 42.1212 133.072 42.3023 133.311 42.5462C133.55 42.7876 133.67 43.099 133.67 43.4801C133.67 43.7926 133.58 44.072 133.4 44.3182C133.222 44.5644 132.974 44.7585 132.654 44.9006C132.334 45.0426 131.963 45.1136 131.539 45.1136C130.983 45.1136 130.522 44.9929 130.157 44.7514C129.793 44.5099 129.562 44.1572 129.465 43.6932L130.26 43.4943C130.336 43.7879 130.479 44.008 130.69 44.1548C130.903 44.3016 131.181 44.375 131.525 44.375C131.915 44.375 132.225 44.2921 132.455 44.1264C132.687 43.9583 132.803 43.7571 132.803 43.5227C132.803 43.3333 132.737 43.1747 132.604 43.0469C132.472 42.9167 132.268 42.8196 131.993 42.7557L131.084 42.5426C130.585 42.4242 130.218 42.2408 129.983 41.9922C129.751 41.7412 129.635 41.4276 129.635 41.0511C129.635 40.7434 129.722 40.4711 129.895 40.2344C130.07 39.9976 130.308 39.8118 130.608 39.6768C130.912 39.5419 131.255 39.4744 131.638 39.4744C132.178 39.4744 132.602 39.5928 132.91 39.8295C133.22 40.0663 133.44 40.3788 133.57 40.767Z" fill="#F48A8A"/>
<path d="M192.607 45L189.929 41.464H188.317V40.346H190.267C190.726 40.346 191.103 40.2507 191.398 40.06C191.692 39.8693 191.848 39.5573 191.866 39.124H188.317V38.097H191.84C191.796 37.7417 191.627 37.4773 191.333 37.304C191.047 37.1307 190.691 37.044 190.267 37.044H188.317V35.926H194.895V37.044H192.308V37.109C192.481 37.1697 192.646 37.278 192.802 37.434C192.966 37.59 193.092 37.811 193.179 38.097H194.895V39.124H193.283C193.239 39.67 193.062 40.1293 192.75 40.502C192.446 40.8747 192.026 41.1347 191.489 41.282L194.349 45H192.607ZM196.58 45V43.791H199.128V36.992H199.024L196.918 39.241L196.021 38.435L198.335 35.926H200.584V43.791H202.781V45H196.58ZM207.936 45V43.232H203.62V41.984L207.416 35.926H209.327V42.088H210.601V43.232H209.327V45H207.936ZM204.855 42.088H207.936V37.265H207.858L204.855 42.088ZM218.136 39.306C218.136 39.9647 218.037 40.5843 217.837 41.165C217.638 41.7457 217.378 42.2787 217.057 42.764C216.737 43.2493 216.381 43.6827 215.991 44.064C215.601 44.4453 215.216 44.7573 214.834 45H212.884C213.404 44.6273 213.872 44.2677 214.288 43.921C214.704 43.5743 215.064 43.219 215.367 42.855C215.679 42.491 215.939 42.1097 216.147 41.711C216.355 41.3037 216.516 40.853 216.628 40.359L216.537 40.333C216.442 40.515 216.329 40.6883 216.199 40.853C216.069 41.009 215.918 41.1477 215.744 41.269C215.571 41.3903 215.372 41.4857 215.146 41.555C214.921 41.6243 214.665 41.659 214.379 41.659C213.989 41.659 213.63 41.594 213.3 41.464C212.971 41.334 212.685 41.1477 212.442 40.905C212.2 40.6537 212.009 40.3547 211.87 40.008C211.74 39.6613 211.675 39.2713 211.675 38.838C211.675 38.3873 211.749 37.9757 211.896 37.603C212.052 37.2217 212.269 36.8967 212.546 36.628C212.832 36.3593 213.175 36.1513 213.573 36.004C213.972 35.848 214.414 35.77 214.899 35.77C215.402 35.77 215.853 35.8523 216.251 36.017C216.659 36.1817 217.001 36.42 217.278 36.732C217.556 37.0353 217.768 37.4037 217.915 37.837C218.063 38.2703 218.136 38.76 218.136 39.306ZM214.912 40.502C215.458 40.502 215.883 40.3547 216.186 40.06C216.49 39.7567 216.641 39.332 216.641 38.786V38.656C216.641 38.11 216.49 37.6897 216.186 37.395C215.883 37.0917 215.458 36.94 214.912 36.94C214.358 36.94 213.929 37.0917 213.625 37.395C213.322 37.6897 213.17 38.11 213.17 38.656V38.786C213.17 39.332 213.322 39.7567 213.625 40.06C213.929 40.3547 214.358 40.502 214.912 40.502ZM225.931 39.306C225.931 39.9647 225.832 40.5843 225.632 41.165C225.433 41.7457 225.173 42.2787 224.852 42.764C224.532 43.2493 224.176 43.6827 223.786 44.064C223.396 44.4453 223.011 44.7573 222.629 45H220.679C221.199 44.6273 221.667 44.2677 222.083 43.921C222.499 43.5743 222.859 43.219 223.162 42.855C223.474 42.491 223.734 42.1097 223.942 41.711C224.15 41.3037 224.311 40.853 224.423 40.359L224.332 40.333C224.237 40.515 224.124 40.6883 223.994 40.853C223.864 41.009 223.713 41.1477 223.539 41.269C223.366 41.3903 223.167 41.4857 222.941 41.555C222.716 41.6243 222.46 41.659 222.174 41.659C221.784 41.659 221.425 41.594 221.095 41.464C220.766 41.334 220.48 41.1477 220.237 40.905C219.995 40.6537 219.804 40.3547 219.665 40.008C219.535 39.6613 219.47 39.2713 219.47 38.838C219.47 38.3873 219.544 37.9757 219.691 37.603C219.847 37.2217 220.064 36.8967 220.341 36.628C220.627 36.3593 220.97 36.1513 221.368 36.004C221.767 35.848 222.209 35.77 222.694 35.77C223.197 35.77 223.648 35.8523 224.046 36.017C224.454 36.1817 224.796 36.42 225.073 36.732C225.351 37.0353 225.563 37.4037 225.71 37.837C225.858 38.2703 225.931 38.76 225.931 39.306ZM222.707 40.502C223.253 40.502 223.678 40.3547 223.981 40.06C224.285 39.7567 224.436 39.332 224.436 38.786V38.656C224.436 38.11 224.285 37.6897 223.981 37.395C223.678 37.0917 223.253 36.94 222.707 36.94C222.153 36.94 221.724 37.0917 221.42 37.395C221.117 37.6897 220.965 38.11 220.965 38.656V38.786C220.965 39.332 221.117 39.7567 221.42 40.06C221.724 40.3547 222.153 40.502 222.707 40.502ZM230.515 45.13C230.099 45.13 229.805 45.0433 229.631 44.87C229.467 44.6967 229.384 44.4843 229.384 44.233V43.895C229.384 43.6437 229.467 43.4313 229.631 43.258C229.805 43.0847 230.099 42.998 230.515 42.998C230.931 42.998 231.222 43.0847 231.386 43.258C231.56 43.4313 231.646 43.6437 231.646 43.895V44.233C231.646 44.4843 231.56 44.6967 231.386 44.87C231.222 45.0433 230.931 45.13 230.515 45.13ZM238.31 45.156C237.738 45.156 237.24 45.052 236.815 44.844C236.399 44.6273 236.052 44.3197 235.775 43.921C235.506 43.5223 235.307 43.0327 235.177 42.452C235.047 41.8713 234.982 41.2083 234.982 40.463C234.982 39.7263 235.047 39.0677 235.177 38.487C235.307 37.8977 235.506 37.4037 235.775 37.005C236.052 36.6063 236.399 36.303 236.815 36.095C237.24 35.8783 237.738 35.77 238.31 35.77C238.882 35.77 239.376 35.8783 239.792 36.095C240.217 36.303 240.563 36.6063 240.832 37.005C241.109 37.4037 241.313 37.8977 241.443 38.487C241.573 39.0677 241.638 39.7263 241.638 40.463C241.638 41.2083 241.573 41.8713 241.443 42.452C241.313 43.0327 241.109 43.5223 240.832 43.921C240.563 44.3197 240.217 44.6273 239.792 44.844C239.376 45.052 238.882 45.156 238.31 45.156ZM238.31 43.96C238.969 43.96 239.437 43.7173 239.714 43.232C240 42.738 240.143 42.075 240.143 41.243V39.683C240.143 38.851 240 38.1923 239.714 37.707C239.437 37.213 238.969 36.966 238.31 36.966C237.981 36.966 237.699 37.031 237.465 37.161C237.231 37.2823 237.04 37.4643 236.893 37.707C236.746 37.941 236.637 38.227 236.568 38.565C236.507 38.8943 236.477 39.267 236.477 39.683V41.243C236.477 41.659 236.507 42.036 236.568 42.374C236.637 42.7033 236.746 42.9893 236.893 43.232C237.04 43.466 237.231 43.648 237.465 43.778C237.699 43.8993 237.981 43.96 238.31 43.96ZM238.31 41.23C238.007 41.23 237.794 41.1693 237.673 41.048C237.56 40.9267 237.504 40.7793 237.504 40.606V40.32C237.504 40.1467 237.56 39.9993 237.673 39.878C237.794 39.7567 238.007 39.696 238.31 39.696C238.613 39.696 238.821 39.7567 238.934 39.878C239.055 39.9993 239.116 40.1467 239.116 40.32V40.606C239.116 40.7793 239.055 40.9267 238.934 41.048C238.821 41.1693 238.613 41.23 238.31 41.23ZM246.105 45.156C245.533 45.156 245.035 45.052 244.61 44.844C244.194 44.6273 243.847 44.3197 243.57 43.921C243.301 43.5223 243.102 43.0327 242.972 42.452C242.842 41.8713 242.777 41.2083 242.777 40.463C242.777 39.7263 242.842 39.0677 242.972 38.487C243.102 37.8977 243.301 37.4037 243.57 37.005C243.847 36.6063 244.194 36.303 244.61 36.095C245.035 35.8783 245.533 35.77 246.105 35.77C246.677 35.77 247.171 35.8783 247.587 36.095C248.012 36.303 248.358 36.6063 248.627 37.005C248.904 37.4037 249.108 37.8977 249.238 38.487C249.368 39.0677 249.433 39.7263 249.433 40.463C249.433 41.2083 249.368 41.8713 249.238 42.452C249.108 43.0327 248.904 43.5223 248.627 43.921C248.358 44.3197 248.012 44.6273 247.587 44.844C247.171 45.052 246.677 45.156 246.105 45.156ZM246.105 43.96C246.764 43.96 247.232 43.7173 247.509 43.232C247.795 42.738 247.938 42.075 247.938 41.243V39.683C247.938 38.851 247.795 38.1923 247.509 37.707C247.232 37.213 246.764 36.966 246.105 36.966C245.776 36.966 245.494 37.031 245.26 37.161C245.026 37.2823 244.835 37.4643 244.688 37.707C244.541 37.941 244.432 38.227 244.363 38.565C244.302 38.8943 244.272 39.267 244.272 39.683V41.243C244.272 41.659 244.302 42.036 244.363 42.374C244.432 42.7033 244.541 42.9893 244.688 43.232C244.835 43.466 245.026 43.648 245.26 43.778C245.494 43.8993 245.776 43.96 246.105 43.96ZM246.105 41.23C245.802 41.23 245.589 41.1693 245.468 41.048C245.355 40.9267 245.299 40.7793 245.299 40.606V40.32C245.299 40.1467 245.355 39.9993 245.468 39.878C245.589 39.7567 245.802 39.696 246.105 39.696C246.408 39.696 246.616 39.7567 246.729 39.878C246.85 39.9993 246.911 40.1467 246.911 40.32V40.606C246.911 40.7793 246.85 40.9267 246.729 41.048C246.616 41.1693 246.408 41.23 246.105 41.23Z" fill="white"/>
<rect x="204" y="12" width="46" height="17" rx="3" fill="#4D4B3C"/>
<path d="M210.217 17.4545H211.339L213.049 20.43H213.119L214.829 17.4545H215.951L213.576 21.4304V24H212.592V21.4304L210.217 17.4545ZM216.793 24V17.4545H220.897V18.3047H217.781V20.299H220.683V21.146H217.781V23.1499H220.935V24H216.793ZM222.679 24H221.631L223.986 17.4545H225.127L227.482 24H226.434L224.584 18.6435H224.533L222.679 24ZM222.855 21.4368H226.255V22.2678H222.855V21.4368ZM228.338 24V17.4545H230.671C231.178 17.4545 231.599 17.5419 231.933 17.7166C232.27 17.8913 232.521 18.1332 232.687 18.4421C232.854 18.7489 232.937 19.1037 232.937 19.5064C232.937 19.907 232.853 20.2596 232.684 20.5643C232.518 20.8668 232.267 21.1023 231.93 21.2706C231.595 21.4389 231.175 21.5231 230.668 21.5231H228.9V20.6729H230.578C230.898 20.6729 231.158 20.6271 231.358 20.5355C231.56 20.4439 231.708 20.3107 231.802 20.136C231.896 19.9613 231.943 19.7514 231.943 19.5064C231.943 19.2592 231.895 19.0451 231.799 18.864C231.705 18.6829 231.557 18.5444 231.355 18.4485C231.154 18.3505 230.891 18.3015 230.565 18.3015H229.325V24H228.338ZM231.569 21.0469L233.186 24H232.061L230.476 21.0469H231.569ZM234.048 24V17.4545H235.036V23.1499H238.002V24H234.048ZM238.05 17.4545H239.172L240.882 20.43H240.952L242.662 17.4545H243.784L241.409 21.4304V24H240.425V21.4304L238.05 17.4545Z" fill="#FFF7E0"/>
</g>
<defs>
<filter id="filter0_b_37_28" x="-5" y="-5" width="270" height="70" filterUnits="userSpaceOnUse" color-interpolation-filters="sRGB">
<feFlood flood-opacity="0" result="BackgroundImageFix"/>
<feGaussianBlur in="BackgroundImageFix" stdDeviation="2.5"/>
<feComposite in2="SourceAlpha" operator="in" result="effect1_backgroundBlur_37_28"/>
<feBlend mode="normal" in="SourceGraphic" in2="effect1_backgroundBlur_37_28" result="shape"/>
</filter>
<radialGradient id="paint0_radial_37_28" cx="0" cy="0" r="1" gradientUnits="userSpaceOnUse" gradientTransform="translate(40.8224 30.4182) scale(20.0285 20.1675)">
<stop offset="0.007" stop-color="#021192"/>
<stop offset="0.03" stop-color="#021096"/>
<stop offset="0.057" stop-color="#010CB4"/>
<stop offset="0.084" stop-color="#0008CE"/>
<stop offset="0.111" stop-color="#0006D7"/>
<stop offset="0.138" stop-color="#0004E1"/>
<stop offset="0.165" stop-color="#0001FA"/>
<stop offset="0.191" stop-color="#0000FE"/>
<stop offset="0.216" stop-color="#0F1EFF"/>
<stop offset="1" stop-color="#00FFFF" stop-opacity="0"/>
</radialGradient>
<clipPath id="clip0_37_28">
<rect width="260" height="60" fill="white"/>
</clipPath>
</defs>
</svg>
