<svg width="260" height="60" viewBox="0 0 260 60" fill="none" xmlns="http://www.w3.org/2000/svg">
<g clip-path="url(#clip0_37_9)">
<rect x="0.5" y="0.5" width="259" height="59" rx="5.5" fill="#2E2E2E" stroke="#414141"/>
<rect x="10" y="10" width="40" height="40" rx="7" fill="white"/>
<g clip-path="url(#clip1_37_9)">
<path d="M22.2261 29.3644C22.6896 29.7317 22.9218 30.3051 22.9218 31.0847V35H20.7131V31.3729C20.7131 31.2148 20.6522 31.0763 20.5305 30.9576C20.4087 30.839 20.2666 30.7797 20.1044 30.7797H18.8174C18.6549 30.7797 18.5158 30.839 18.4 30.9576C18.284 31.0763 18.2261 31.2148 18.2261 31.3729V35H16V26H18.2261V28.9322C18.2609 28.9211 18.3418 28.8983 18.4696 28.8644C18.597 28.8305 18.7652 28.8136 18.9739 28.8136H20.4C21.1535 28.8135 21.7623 28.9973 22.2261 29.3644ZM29.2348 28.8135H31.4609V32.6102C31.4609 33.322 31.2608 33.8983 30.8609 34.339C30.4609 34.7796 29.9187 35 29.2348 35H27.0435C26.2783 35 25.6666 34.794 25.2087 34.3814C24.7505 33.969 24.5217 33.3787 24.5217 32.6102V28.8136H26.7478V32.4407C26.7478 32.5991 26.8057 32.7346 26.9217 32.8475C27.0375 32.9606 27.1766 33.017 27.3391 33.017H28.6261C28.7883 33.017 28.9304 32.9606 29.0522 32.8475C29.174 32.7346 29.2348 32.599 29.2348 32.4407V28.8135ZM33.1478 26H35.3739V35H33.1478V26ZM44 28.8135V32.6102C44 33.322 43.8 33.8983 43.4 34.339C43 34.7796 42.4579 35 41.7739 35H39.6C38.8231 35 38.2057 34.794 37.7478 34.3814C37.2897 33.969 37.0609 33.3787 37.0609 32.6102V28.8136H39.287V32.4407C39.287 32.5991 39.3448 32.7346 39.4609 32.8475C39.5766 32.9606 39.7158 33.017 39.8782 33.017H41.1826C41.3448 33.017 41.484 32.9606 41.6 32.8475C41.7157 32.7346 41.7739 32.599 41.7739 32.4407V28.8135H44Z" fill="#1CE783"/>
</g>
<path d="M67.344 16H69.456V28H67.344V16ZM77.104 16H79.216V28H77.104V16ZM68.48 21.024H78.112V22.88H68.48V21.024ZM85.3491 28.224C84.5171 28.224 83.8078 28.0533 83.2211 27.712C82.6451 27.3707 82.2025 26.88 81.8931 26.24C81.5838 25.6 81.4291 24.8373 81.4291 23.952V18.944H83.5091V23.632C83.5091 24.5707 83.7225 25.2853 84.1491 25.776C84.5865 26.256 85.2105 26.496 86.0211 26.496C86.6078 26.496 87.1091 26.368 87.5251 26.112C87.9518 25.856 88.2825 25.4933 88.5171 25.024C88.7518 24.544 88.8691 23.9893 88.8691 23.36L89.5891 23.76C89.5038 24.688 89.2691 25.488 88.8851 26.16C88.5011 26.8213 88.0051 27.3333 87.3971 27.696C86.7891 28.048 86.1065 28.224 85.3491 28.224ZM89.3971 28L88.8691 24.736V18.944H90.9491V25.056L91.4771 28H89.3971ZM93.2759 15.68H95.3559V28H93.2759V15.68ZM101.349 28.224C100.517 28.224 99.8078 28.0533 99.2211 27.712C98.6451 27.3707 98.2025 26.88 97.8931 26.24C97.5838 25.6 97.4291 24.8373 97.4291 23.952V18.944H99.5091V23.632C99.5091 24.5707 99.7225 25.2853 100.149 25.776C100.586 26.256 101.21 26.496 102.021 26.496C102.608 26.496 103.109 26.368 103.525 26.112C103.952 25.856 104.282 25.4933 104.517 25.024C104.752 24.544 104.869 23.9893 104.869 23.36L105.589 23.76C105.504 24.688 105.269 25.488 104.885 26.16C104.501 26.8213 104.005 27.3333 103.397 27.696C102.789 28.048 102.106 28.224 101.349 28.224ZM105.397 28L104.869 24.736V18.944H106.949V25.056L107.477 28H105.397Z" fill="white"/>
<path d="M69.125 45H66.8807V37.7273H69.2244C69.9299 37.7273 70.5336 37.8729 71.0355 38.1641C71.5374 38.4529 71.9221 38.8684 72.1896 39.4105C72.4571 39.9503 72.5909 40.5966 72.5909 41.3494C72.5909 42.107 72.456 42.7592 72.1861 43.3061C71.9162 43.8506 71.5232 44.2696 71.0071 44.5632C70.491 44.8544 69.8636 45 69.125 45ZM67.7614 44.2188H69.0682C69.6695 44.2188 70.1679 44.1027 70.5632 43.8707C70.9586 43.6387 71.2533 43.3085 71.4474 42.88C71.6416 42.4515 71.7386 41.9413 71.7386 41.3494C71.7386 40.7623 71.6428 40.2569 71.451 39.8331C71.2592 39.407 70.9728 39.0803 70.5916 38.853C70.2105 38.6233 69.7358 38.5085 69.1676 38.5085H67.7614V44.2188ZM77.392 42.7699V39.5455H78.2301V45H77.392V44.0767H77.3352C77.2074 44.3537 77.0085 44.5893 76.7386 44.7834C76.4688 44.9751 76.1278 45.071 75.7159 45.071C75.375 45.071 75.072 44.9964 74.8068 44.8473C74.5417 44.6958 74.3333 44.4685 74.1818 44.1655C74.0303 43.8601 73.9545 43.4754 73.9545 43.0114V39.5455H74.7926V42.9545C74.7926 43.3523 74.9039 43.6695 75.1264 43.9062C75.3513 44.143 75.6378 44.2614 75.9858 44.2614C76.1941 44.2614 76.406 44.2081 76.6214 44.1016C76.8393 43.995 77.0215 43.8317 77.1683 43.6115C77.3175 43.3913 77.392 43.1108 77.392 42.7699ZM82.052 45.1136C81.5265 45.1136 81.0731 44.9976 80.6919 44.7656C80.3132 44.5312 80.0208 44.2045 79.8148 43.7855C79.6112 43.3641 79.5094 42.8741 79.5094 42.3153C79.5094 41.7566 79.6112 41.2642 79.8148 40.8381C80.0208 40.4096 80.3072 40.0758 80.6742 39.8366C81.0435 39.5952 81.4744 39.4744 81.9668 39.4744C82.2509 39.4744 82.5314 39.5218 82.8084 39.6165C83.0854 39.7112 83.3375 39.8651 83.5648 40.0781C83.7921 40.2888 83.9732 40.5682 84.1081 40.9162C84.2431 41.2642 84.3105 41.6927 84.3105 42.2017V42.5568H80.106V41.8324H83.4583C83.4583 41.5246 83.3967 41.25 83.2736 41.0085C83.1529 40.767 82.9801 40.5765 82.7551 40.4368C82.5326 40.2971 82.2698 40.2273 81.9668 40.2273C81.633 40.2273 81.3442 40.3101 81.1003 40.4759C80.8588 40.6392 80.673 40.8523 80.5428 41.1151C80.4126 41.3778 80.3475 41.6596 80.3475 41.9602V42.4432C80.3475 42.8551 80.4185 43.2043 80.5605 43.4908C80.705 43.7749 80.905 43.9915 81.1607 44.1406C81.4164 44.2874 81.7135 44.3608 82.052 44.3608C82.2722 44.3608 82.4711 44.33 82.6486 44.2685C82.8285 44.2045 82.9836 44.1098 83.1138 43.9844C83.244 43.8565 83.3446 43.6979 83.4157 43.5085L84.2253 43.7358C84.1401 44.0104 83.9969 44.2519 83.7956 44.4602C83.5944 44.6662 83.3458 44.8272 83.0499 44.9432C82.754 45.0568 82.4213 45.1136 82.052 45.1136ZM88.3979 45V39.5455H89.236V45H88.3979ZM88.824 38.6364C88.6607 38.6364 88.5198 38.5807 88.4015 38.4695C88.2855 38.3582 88.2275 38.2244 88.2275 38.0682C88.2275 37.9119 88.2855 37.7782 88.4015 37.6669C88.5198 37.5556 88.6607 37.5 88.824 37.5C88.9874 37.5 89.1271 37.5556 89.2431 37.6669C89.3614 37.7782 89.4206 37.9119 89.4206 38.0682C89.4206 38.2244 89.3614 38.3582 89.2431 38.4695C89.1271 38.5807 88.9874 38.6364 88.824 38.6364ZM91.609 41.7188V45H90.771V39.5455H91.5806V40.3977H91.6516C91.7795 40.1207 91.9736 39.8982 92.234 39.7301C92.4944 39.5597 92.8306 39.4744 93.2425 39.4744C93.6119 39.4744 93.935 39.5502 94.212 39.7017C94.489 39.8509 94.7044 40.0781 94.8583 40.3835C95.0122 40.6866 95.0891 41.0701 95.0891 41.5341V45H94.2511V41.5909C94.2511 41.1624 94.1398 40.8286 93.9173 40.5895C93.6947 40.348 93.3893 40.2273 93.0011 40.2273C92.7335 40.2273 92.4944 40.2853 92.2837 40.4013C92.0754 40.5173 91.9109 40.6866 91.7901 40.9091C91.6694 41.1316 91.609 41.4015 91.609 41.7188ZM101.876 45.0994C101.407 45.0994 100.99 45.0189 100.623 44.858C100.258 44.697 99.9681 44.4732 99.7527 44.1868C99.5396 43.898 99.4236 43.563 99.4047 43.1818H100.3C100.318 43.4162 100.399 43.6186 100.541 43.7891C100.683 43.9571 100.869 44.0874 101.099 44.1797C101.328 44.272 101.583 44.3182 101.862 44.3182C102.175 44.3182 102.452 44.2637 102.693 44.1548C102.934 44.0459 103.124 43.8944 103.261 43.7003C103.398 43.5062 103.467 43.2812 103.467 43.0256C103.467 42.758 103.401 42.5225 103.268 42.3189C103.136 42.1129 102.942 41.9519 102.686 41.8359C102.43 41.7199 102.118 41.6619 101.748 41.6619H101.166V40.8807H101.748C102.037 40.8807 102.291 40.8286 102.508 40.7244C102.729 40.6203 102.9 40.4735 103.023 40.2841C103.149 40.0947 103.211 39.8722 103.211 39.6165C103.211 39.3703 103.157 39.156 103.048 38.9737C102.939 38.7914 102.785 38.6494 102.586 38.5476C102.39 38.4458 102.158 38.3949 101.89 38.3949C101.64 38.3949 101.403 38.4411 101.18 38.5334C100.96 38.6233 100.78 38.7547 100.64 38.9276C100.501 39.098 100.425 39.304 100.413 39.5455H99.5609C99.5751 39.1643 99.6899 38.8305 99.9054 38.544C100.121 38.2552 100.403 38.0303 100.751 37.8693C101.101 37.7083 101.486 37.6278 101.905 37.6278C102.354 37.6278 102.74 37.719 103.062 37.9013C103.384 38.0812 103.632 38.3191 103.805 38.6151C103.977 38.911 104.064 39.2306 104.064 39.5739C104.064 39.9834 103.956 40.3326 103.741 40.6214C103.528 40.9103 103.238 41.1103 102.871 41.2216V41.2784C103.33 41.3542 103.689 41.5495 103.947 41.8643C104.205 42.1768 104.334 42.5639 104.334 43.0256C104.334 43.4209 104.226 43.776 104.01 44.0909C103.797 44.4034 103.506 44.6496 103.137 44.8295C102.768 45.0095 102.347 45.0994 101.876 45.0994ZM110.672 45.1136C110.218 45.1136 109.817 44.9988 109.469 44.7692C109.121 44.5372 108.848 44.2105 108.652 43.7891C108.455 43.3653 108.357 42.8646 108.357 42.2869C108.357 41.714 108.455 41.2169 108.652 40.7955C108.848 40.3741 109.122 40.0485 109.472 39.8189C109.823 39.5893 110.227 39.4744 110.687 39.4744C111.042 39.4744 111.322 39.5336 111.528 39.652C111.737 39.768 111.895 39.9006 112.004 40.0497C112.115 40.1965 112.202 40.3172 112.263 40.4119H112.334V37.7273H113.172V45H112.363V44.1619H112.263C112.202 44.2614 112.114 44.3868 112.001 44.5384C111.887 44.6875 111.725 44.8213 111.514 44.9396C111.303 45.0556 111.023 45.1136 110.672 45.1136ZM110.786 44.3608C111.122 44.3608 111.406 44.2732 111.638 44.098C111.87 43.9205 112.047 43.6754 112.167 43.3629C112.288 43.0481 112.349 42.6847 112.349 42.2727C112.349 41.8655 112.289 41.5092 112.171 41.2038C112.053 40.8961 111.877 40.657 111.645 40.4865C111.413 40.3137 111.127 40.2273 110.786 40.2273C110.431 40.2273 110.135 40.3184 109.898 40.5007C109.664 40.6806 109.488 40.9257 109.369 41.2358C109.253 41.5436 109.195 41.8892 109.195 42.2727C109.195 42.661 109.254 43.0137 109.373 43.331C109.493 43.6458 109.671 43.8968 109.905 44.0838C110.142 44.2685 110.436 44.3608 110.786 44.3608ZM116.429 45.1278C116.083 45.1278 115.769 45.0627 115.488 44.9325C115.206 44.8 114.982 44.6094 114.817 44.3608C114.651 44.1098 114.568 43.8068 114.568 43.4517C114.568 43.1392 114.63 42.8859 114.753 42.6918C114.876 42.4953 115.04 42.3414 115.246 42.2301C115.452 42.1188 115.68 42.036 115.928 41.9815C116.179 41.9247 116.431 41.8797 116.684 41.8466C117.016 41.804 117.285 41.772 117.491 41.7507C117.699 41.727 117.85 41.688 117.945 41.6335C118.042 41.5791 118.091 41.4844 118.091 41.3494V41.321C118.091 40.9706 117.995 40.6984 117.803 40.5043C117.614 40.3101 117.326 40.2131 116.94 40.2131C116.54 40.2131 116.226 40.3007 115.999 40.4759C115.772 40.651 115.612 40.8381 115.52 41.0369L114.724 40.7528C114.866 40.4214 115.056 40.1634 115.292 39.9787C115.532 39.7917 115.792 39.6615 116.074 39.5881C116.358 39.5123 116.637 39.4744 116.912 39.4744C117.087 39.4744 117.288 39.4957 117.515 39.5384C117.745 39.5786 117.966 39.6626 118.18 39.7905C118.395 39.9183 118.574 40.1113 118.716 40.3693C118.858 40.6274 118.929 40.973 118.929 41.4062V45H118.091V44.2614H118.048C117.991 44.3797 117.897 44.5064 117.764 44.6413C117.631 44.7763 117.455 44.8911 117.235 44.9858C117.015 45.0805 116.746 45.1278 116.429 45.1278ZM116.557 44.375C116.888 44.375 117.167 44.3099 117.395 44.1797C117.624 44.0495 117.797 43.8814 117.913 43.6754C118.032 43.4695 118.091 43.2528 118.091 43.0256V42.2585C118.055 42.3011 117.977 42.3402 117.856 42.3757C117.738 42.4089 117.601 42.4384 117.444 42.4645C117.291 42.4882 117.14 42.5095 116.993 42.5284C116.849 42.545 116.732 42.5592 116.642 42.571C116.424 42.5994 116.22 42.6456 116.031 42.7095C115.844 42.7711 115.693 42.8646 115.577 42.9901C115.463 43.1132 115.406 43.2812 115.406 43.4943C115.406 43.7855 115.514 44.0057 115.729 44.1548C115.947 44.3016 116.223 44.375 116.557 44.375ZM120.803 47.0455C120.661 47.0455 120.534 47.0336 120.423 47.0099C120.312 46.9886 120.235 46.9673 120.192 46.946L120.405 46.2074C120.609 46.2595 120.789 46.2784 120.945 46.2642C121.101 46.25 121.24 46.1802 121.36 46.0547C121.484 45.9316 121.596 45.7315 121.698 45.4545L121.854 45.0284L119.837 39.5455H120.746L122.252 43.892H122.309L123.814 39.5455H124.723L122.408 45.7955C122.304 46.0772 122.175 46.3104 122.021 46.495C121.867 46.6821 121.688 46.8205 121.485 46.9105C121.283 47.0005 121.056 47.0455 120.803 47.0455ZM129.693 40.767L128.94 40.9801C128.893 40.8546 128.823 40.7327 128.731 40.6143C128.641 40.4936 128.518 40.3942 128.362 40.3161C128.205 40.2379 128.005 40.1989 127.761 40.1989C127.428 40.1989 127.149 40.2758 126.927 40.4297C126.707 40.5812 126.597 40.7741 126.597 41.0085C126.597 41.2169 126.672 41.3814 126.824 41.5021C126.975 41.6229 127.212 41.7235 127.534 41.804L128.344 42.0028C128.831 42.1212 129.195 42.3023 129.434 42.5462C129.673 42.7876 129.793 43.099 129.793 43.4801C129.793 43.7926 129.703 44.072 129.523 44.3182C129.345 44.5644 129.097 44.7585 128.777 44.9006C128.457 45.0426 128.086 45.1136 127.662 45.1136C127.106 45.1136 126.645 44.9929 126.281 44.7514C125.916 44.5099 125.685 44.1572 125.588 43.6932L126.384 43.4943C126.459 43.7879 126.603 44.008 126.813 44.1548C127.026 44.3016 127.304 44.375 127.648 44.375C128.038 44.375 128.348 44.2921 128.578 44.1264C128.81 43.9583 128.926 43.7571 128.926 43.5227C128.926 43.3333 128.86 43.1747 128.727 43.0469C128.595 42.9167 128.391 42.8196 128.116 42.7557L127.207 42.5426C126.708 42.4242 126.341 42.2408 126.107 41.9922C125.875 41.7412 125.759 41.4276 125.759 41.0511C125.759 40.7434 125.845 40.4711 126.018 40.2344C126.193 39.9976 126.431 39.8118 126.732 39.6768C127.035 39.5419 127.378 39.4744 127.761 39.4744C128.301 39.4744 128.725 39.5928 129.033 39.8295C129.343 40.0663 129.563 40.3788 129.693 40.767Z" fill="#F48A8A"/>
<path d="M200.402 45L197.724 41.464H196.112V40.346H198.062C198.521 40.346 198.898 40.2507 199.193 40.06C199.487 39.8693 199.643 39.5573 199.661 39.124H196.112V38.097H199.635C199.591 37.7417 199.422 37.4773 199.128 37.304C198.842 37.1307 198.486 37.044 198.062 37.044H196.112V35.926H202.69V37.044H200.103V37.109C200.276 37.1697 200.441 37.278 200.597 37.434C200.761 37.59 200.887 37.811 200.974 38.097H202.69V39.124H201.078C201.034 39.67 200.857 40.1293 200.545 40.502C200.241 40.8747 199.821 41.1347 199.284 41.282L202.144 45H200.402ZM204.374 45V43.791H206.922V36.992H206.818L204.712 39.241L203.815 38.435L206.129 35.926H208.378V43.791H210.575V45H204.374ZM218.136 39.306C218.136 39.9647 218.037 40.5843 217.837 41.165C217.638 41.7457 217.378 42.2787 217.057 42.764C216.737 43.2493 216.381 43.6827 215.991 44.064C215.601 44.4453 215.216 44.7573 214.834 45H212.884C213.404 44.6273 213.872 44.2677 214.288 43.921C214.704 43.5743 215.064 43.219 215.367 42.855C215.679 42.491 215.939 42.1097 216.147 41.711C216.355 41.3037 216.516 40.853 216.628 40.359L216.537 40.333C216.442 40.515 216.329 40.6883 216.199 40.853C216.069 41.009 215.918 41.1477 215.744 41.269C215.571 41.3903 215.372 41.4857 215.146 41.555C214.921 41.6243 214.665 41.659 214.379 41.659C213.989 41.659 213.63 41.594 213.3 41.464C212.971 41.334 212.685 41.1477 212.442 40.905C212.2 40.6537 212.009 40.3547 211.87 40.008C211.74 39.6613 211.675 39.2713 211.675 38.838C211.675 38.3873 211.749 37.9757 211.896 37.603C212.052 37.2217 212.269 36.8967 212.546 36.628C212.832 36.3593 213.175 36.1513 213.573 36.004C213.972 35.848 214.414 35.77 214.899 35.77C215.402 35.77 215.853 35.8523 216.251 36.017C216.659 36.1817 217.001 36.42 217.278 36.732C217.556 37.0353 217.768 37.4037 217.915 37.837C218.063 38.2703 218.136 38.76 218.136 39.306ZM214.912 40.502C215.458 40.502 215.883 40.3547 216.186 40.06C216.49 39.7567 216.641 39.332 216.641 38.786V38.656C216.641 38.11 216.49 37.6897 216.186 37.395C215.883 37.0917 215.458 36.94 214.912 36.94C214.358 36.94 213.929 37.0917 213.625 37.395C213.322 37.6897 213.17 38.11 213.17 38.656V38.786C213.17 39.332 213.322 39.7567 213.625 40.06C213.929 40.3547 214.358 40.502 214.912 40.502ZM225.931 39.306C225.931 39.9647 225.832 40.5843 225.632 41.165C225.433 41.7457 225.173 42.2787 224.852 42.764C224.532 43.2493 224.176 43.6827 223.786 44.064C223.396 44.4453 223.011 44.7573 222.629 45H220.679C221.199 44.6273 221.667 44.2677 222.083 43.921C222.499 43.5743 222.859 43.219 223.162 42.855C223.474 42.491 223.734 42.1097 223.942 41.711C224.15 41.3037 224.311 40.853 224.423 40.359L224.332 40.333C224.237 40.515 224.124 40.6883 223.994 40.853C223.864 41.009 223.713 41.1477 223.539 41.269C223.366 41.3903 223.167 41.4857 222.941 41.555C222.716 41.6243 222.46 41.659 222.174 41.659C221.784 41.659 221.425 41.594 221.095 41.464C220.766 41.334 220.48 41.1477 220.237 40.905C219.995 40.6537 219.804 40.3547 219.665 40.008C219.535 39.6613 219.47 39.2713 219.47 38.838C219.47 38.3873 219.544 37.9757 219.691 37.603C219.847 37.2217 220.064 36.8967 220.341 36.628C220.627 36.3593 220.97 36.1513 221.368 36.004C221.767 35.848 222.209 35.77 222.694 35.77C223.197 35.77 223.648 35.8523 224.046 36.017C224.454 36.1817 224.796 36.42 225.073 36.732C225.351 37.0353 225.563 37.4037 225.71 37.837C225.858 38.2703 225.931 38.76 225.931 39.306ZM222.707 40.502C223.253 40.502 223.678 40.3547 223.981 40.06C224.285 39.7567 224.436 39.332 224.436 38.786V38.656C224.436 38.11 224.285 37.6897 223.981 37.395C223.678 37.0917 223.253 36.94 222.707 36.94C222.153 36.94 221.724 37.0917 221.42 37.395C221.117 37.6897 220.965 38.11 220.965 38.656V38.786C220.965 39.332 221.117 39.7567 221.42 40.06C221.724 40.3547 222.153 40.502 222.707 40.502ZM230.515 45.13C230.099 45.13 229.805 45.0433 229.631 44.87C229.467 44.6967 229.384 44.4843 229.384 44.233V43.895C229.384 43.6437 229.467 43.4313 229.631 43.258C229.805 43.0847 230.099 42.998 230.515 42.998C230.931 42.998 231.222 43.0847 231.386 43.258C231.56 43.4313 231.646 43.6437 231.646 43.895V44.233C231.646 44.4843 231.56 44.6967 231.386 44.87C231.222 45.0433 230.931 45.13 230.515 45.13ZM238.31 45.156C237.738 45.156 237.24 45.052 236.815 44.844C236.399 44.6273 236.052 44.3197 235.775 43.921C235.506 43.5223 235.307 43.0327 235.177 42.452C235.047 41.8713 234.982 41.2083 234.982 40.463C234.982 39.7263 235.047 39.0677 235.177 38.487C235.307 37.8977 235.506 37.4037 235.775 37.005C236.052 36.6063 236.399 36.303 236.815 36.095C237.24 35.8783 237.738 35.77 238.31 35.77C238.882 35.77 239.376 35.8783 239.792 36.095C240.217 36.303 240.563 36.6063 240.832 37.005C241.109 37.4037 241.313 37.8977 241.443 38.487C241.573 39.0677 241.638 39.7263 241.638 40.463C241.638 41.2083 241.573 41.8713 241.443 42.452C241.313 43.0327 241.109 43.5223 240.832 43.921C240.563 44.3197 240.217 44.6273 239.792 44.844C239.376 45.052 238.882 45.156 238.31 45.156ZM238.31 43.96C238.969 43.96 239.437 43.7173 239.714 43.232C240 42.738 240.143 42.075 240.143 41.243V39.683C240.143 38.851 240 38.1923 239.714 37.707C239.437 37.213 238.969 36.966 238.31 36.966C237.981 36.966 237.699 37.031 237.465 37.161C237.231 37.2823 237.04 37.4643 236.893 37.707C236.746 37.941 236.637 38.227 236.568 38.565C236.507 38.8943 236.477 39.267 236.477 39.683V41.243C236.477 41.659 236.507 42.036 236.568 42.374C236.637 42.7033 236.746 42.9893 236.893 43.232C237.04 43.466 237.231 43.648 237.465 43.778C237.699 43.8993 237.981 43.96 238.31 43.96ZM238.31 41.23C238.007 41.23 237.794 41.1693 237.673 41.048C237.56 40.9267 237.504 40.7793 237.504 40.606V40.32C237.504 40.1467 237.56 39.9993 237.673 39.878C237.794 39.7567 238.007 39.696 238.31 39.696C238.613 39.696 238.821 39.7567 238.934 39.878C239.055 39.9993 239.116 40.1467 239.116 40.32V40.606C239.116 40.7793 239.055 40.9267 238.934 41.048C238.821 41.1693 238.613 41.23 238.31 41.23ZM246.105 45.156C245.533 45.156 245.035 45.052 244.61 44.844C244.194 44.6273 243.847 44.3197 243.57 43.921C243.301 43.5223 243.102 43.0327 242.972 42.452C242.842 41.8713 242.777 41.2083 242.777 40.463C242.777 39.7263 242.842 39.0677 242.972 38.487C243.102 37.8977 243.301 37.4037 243.57 37.005C243.847 36.6063 244.194 36.303 244.61 36.095C245.035 35.8783 245.533 35.77 246.105 35.77C246.677 35.77 247.171 35.8783 247.587 36.095C248.012 36.303 248.358 36.6063 248.627 37.005C248.904 37.4037 249.108 37.8977 249.238 38.487C249.368 39.0677 249.433 39.7263 249.433 40.463C249.433 41.2083 249.368 41.8713 249.238 42.452C249.108 43.0327 248.904 43.5223 248.627 43.921C248.358 44.3197 248.012 44.6273 247.587 44.844C247.171 45.052 246.677 45.156 246.105 45.156ZM246.105 43.96C246.764 43.96 247.232 43.7173 247.509 43.232C247.795 42.738 247.938 42.075 247.938 41.243V39.683C247.938 38.851 247.795 38.1923 247.509 37.707C247.232 37.213 246.764 36.966 246.105 36.966C245.776 36.966 245.494 37.031 245.26 37.161C245.026 37.2823 244.835 37.4643 244.688 37.707C244.541 37.941 244.432 38.227 244.363 38.565C244.302 38.8943 244.272 39.267 244.272 39.683V41.243C244.272 41.659 244.302 42.036 244.363 42.374C244.432 42.7033 244.541 42.9893 244.688 43.232C244.835 43.466 245.026 43.648 245.26 43.778C245.494 43.8993 245.776 43.96 246.105 43.96ZM246.105 41.23C245.802 41.23 245.589 41.1693 245.468 41.048C245.355 40.9267 245.299 40.7793 245.299 40.606V40.32C245.299 40.1467 245.355 39.9993 245.468 39.878C245.589 39.7567 245.802 39.696 246.105 39.696C246.408 39.696 246.616 39.7567 246.729 39.878C246.85 39.9993 246.911 40.1467 246.911 40.32V40.606C246.911 40.7793 246.85 40.9267 246.729 41.048C246.616 41.1693 246.408 41.23 246.105 41.23Z" fill="white"/>
<rect x="193" y="12" width="57" height="17" rx="3" fill="#4D4B3C"/>
<path d="M199.98 17.4545H201.179L203.263 22.5426H203.339L205.423 17.4545H206.622V24H205.682V19.2635H205.621L203.691 23.9904H202.911L200.981 19.2603H200.92V24H199.98V17.4545ZM213.653 20.7273C213.653 21.4261 213.525 22.027 213.27 22.5298C213.014 23.0305 212.663 23.4162 212.218 23.6868C211.775 23.9553 211.271 24.0895 210.706 24.0895C210.14 24.0895 209.634 23.9553 209.188 23.6868C208.745 23.4162 208.396 23.0295 208.14 22.5266C207.884 22.0238 207.757 21.424 207.757 20.7273C207.757 20.0284 207.884 19.4286 208.14 18.9279C208.396 18.4251 208.745 18.0394 209.188 17.771C209.634 17.5004 210.14 17.3651 210.706 17.3651C211.271 17.3651 211.775 17.5004 212.218 17.771C212.663 18.0394 213.014 18.4251 213.27 18.9279C213.525 19.4286 213.653 20.0284 213.653 20.7273ZM212.675 20.7273C212.675 20.1946 212.589 19.7461 212.416 19.3817C212.246 19.0153 212.011 18.7383 211.713 18.5508C211.417 18.3612 211.081 18.2663 210.706 18.2663C210.329 18.2663 209.993 18.3612 209.697 18.5508C209.4 18.7383 209.166 19.0153 208.993 19.3817C208.823 19.7461 208.738 20.1946 208.738 20.7273C208.738 21.2599 208.823 21.7095 208.993 22.076C209.166 22.4403 209.4 22.7173 209.697 22.907C209.993 23.0945 210.329 23.1882 210.706 23.1882C211.081 23.1882 211.417 23.0945 211.713 22.907C212.011 22.7173 212.246 22.4403 212.416 22.076C212.589 21.7095 212.675 21.2599 212.675 20.7273ZM220.077 17.4545V24H219.17L215.843 19.1996H215.782V24H214.794V17.4545H215.709L219.039 22.2614H219.099V17.4545H220.077ZM221.105 18.3047V17.4545H226.171V18.3047H224.129V24H223.144V18.3047H221.105ZM227.2 24V17.4545H228.188V20.299H231.451V17.4545H232.442V24H231.451V21.146H228.188V24H227.2ZM233.79 24V17.4545H234.778V23.1499H237.744V24H233.79ZM237.792 17.4545H238.914L240.623 20.43H240.694L242.404 17.4545H243.525L241.151 21.4304V24H240.166V21.4304L237.792 17.4545Z" fill="#FFF7E0"/>
</g>
<defs>
<clipPath id="clip0_37_9">
<rect width="260" height="60" fill="white"/>
</clipPath>
<clipPath id="clip1_37_9">
<rect width="28" height="9" fill="white" transform="translate(16 26)"/>
</clipPath>
</defs>
</svg>
