<svg width="260" height="60" viewBox="0 0 260 60" fill="none" xmlns="http://www.w3.org/2000/svg">
<g clip-path="url(#clip0_32_7)">
<g filter="url(#filter0_b_32_7)">
<rect width="260" height="60" rx="6" fill="#2E2E2E" fill-opacity="0.1"/>
<rect x="0.5" y="0.5" width="259" height="59" rx="5.5" fill="#2E2E2E" stroke="#414141"/>
</g>
<rect x="10" y="10" width="40" height="40" rx="7" fill="white"/>
<path fill-rule="evenodd" clip-rule="evenodd" d="M32.0466 17.0168L32.0366 22.6562L32.0267 28.2956L31.5627 26.9865C31.5625 26.986 31.562 26.9843 31.5618 26.9839L30.9623 39.5387C31.5517 41.2034 31.8676 42.092 31.8711 42.0956C31.8757 42.1002 32.2117 42.1205 32.6176 42.1406C33.8476 42.2017 35.3717 42.3325 36.5279 42.4761C36.7956 42.5094 37.026 42.5264 37.0398 42.514C37.0537 42.5016 37.0613 36.7596 37.0566 29.7541L37.0482 17.0168H32.0466ZM23 17V29.7502C23 36.7628 23.0069 42.5073 23.0153 42.5157C23.0237 42.5241 23.4579 42.4831 23.9803 42.4246C24.5027 42.3661 25.2247 42.2933 25.5847 42.263C26.1369 42.2163 27.7854 42.1103 27.9763 42.1092C28.0319 42.1088 28.0354 41.8223 28.0435 36.7087L28.052 31.3086L28.4509 32.4372C28.5125 32.6116 28.5318 32.6661 28.5919 32.836L29.1913 20.2843C29.0643 19.9252 29.1309 20.1137 28.9853 19.7022C28.4956 18.3175 28.08 17.1431 28.0618 17.0923L28.0286 17H23Z" fill="#B1060F"/>
<path fill-rule="evenodd" clip-rule="evenodd" d="M23 17V24.157L28.0418 37.5311C28.0423 37.2247 28.0429 37.0591 28.0435 36.7087L28.052 31.3086L28.4509 32.4372C30.6712 38.7199 31.8641 42.0886 31.8711 42.0956C31.8758 42.1002 32.2117 42.1205 32.6176 42.1406C33.8476 42.2017 35.3717 42.3325 36.5279 42.4761C36.7956 42.5094 37.026 42.5264 37.0398 42.514C37.0494 42.5054 37.0556 39.69 37.0572 35.7183L32.0391 21.2909L32.0366 22.6562L32.0267 28.2956L31.5627 26.9865C31.1094 25.7073 30.8067 24.8518 28.9853 19.7022C28.4956 18.3175 28.08 17.1431 28.0618 17.0923L28.0286 17H23Z" fill="url(#paint0_radial_32_7)"/>
<path fill-rule="evenodd" clip-rule="evenodd" d="M23.0001 17L28.052 31.3151V31.3086L28.4509 32.4372C30.6712 38.7199 31.8641 42.0886 31.8711 42.0956C31.8758 42.1002 32.2117 42.1205 32.6176 42.1406C33.8476 42.2017 35.3717 42.3325 36.5279 42.4761C36.7942 42.5092 37.0234 42.5262 37.0394 42.5141L32.0267 28.293V28.2956L31.5627 26.9865C31.1094 25.7073 30.8067 24.8518 28.9853 19.7022C28.4956 18.3175 28.08 17.1431 28.0618 17.0923L28.0286 17L23.0001 17Z" fill="#E50914"/>
<path fill-rule="evenodd" clip-rule="evenodd" d="M32.0466 17.0168L32.0366 22.6562L32.0267 28.2956L31.5627 26.9865C31.5625 26.986 31.562 26.9843 31.5618 26.9839L30.9623 39.5387C31.5517 41.2034 31.8676 42.092 31.8711 42.0956C31.8757 42.1002 32.2117 42.1205 32.6176 42.1406C33.8476 42.2017 35.3717 42.3325 36.5279 42.4761C36.7956 42.5094 37.026 42.5264 37.0398 42.514C37.0537 42.5016 37.0613 36.7596 37.0566 29.7541L37.0482 17.0168H32.0466ZM23 17V29.7502C23 36.7628 23.0069 42.5073 23.0153 42.5157C23.0237 42.5241 23.4579 42.4831 23.9803 42.4246C24.5027 42.3661 25.2247 42.2933 25.5847 42.263C26.1369 42.2163 27.7854 42.1103 27.9763 42.1092C28.0319 42.1088 28.0354 41.8223 28.0435 36.7087L28.052 31.3086L28.4509 32.4372C28.5125 32.6116 28.5318 32.6661 28.5919 32.836L29.1913 20.2843C29.0643 19.9252 29.1309 20.1137 28.9853 19.7022C28.4956 18.3175 28.08 17.1431 28.0618 17.0923L28.0286 17H23Z" fill="#B1060F"/>
<path fill-rule="evenodd" clip-rule="evenodd" d="M23 17V24.157L28.0418 37.5311C28.0423 37.2247 28.0429 37.0591 28.0435 36.7087L28.052 31.3086L28.4509 32.4372C30.6712 38.7199 31.8641 42.0886 31.8711 42.0956C31.8758 42.1002 32.2117 42.1205 32.6176 42.1406C33.8476 42.2017 35.3717 42.3325 36.5279 42.4761C36.7956 42.5094 37.026 42.5264 37.0398 42.514C37.0494 42.5054 37.0556 39.69 37.0572 35.7183L32.0391 21.2909L32.0366 22.6562L32.0267 28.2956L31.5627 26.9865C31.1094 25.7073 30.8067 24.8518 28.9853 19.7022C28.4956 18.3175 28.08 17.1431 28.0618 17.0923L28.0286 17H23Z" fill="url(#paint1_radial_32_7)"/>
<path fill-rule="evenodd" clip-rule="evenodd" d="M23.0001 17L28.052 31.3151V31.3086L28.4509 32.4372C30.6712 38.7199 31.8641 42.0886 31.8711 42.0956C31.8758 42.1002 32.2117 42.1205 32.6176 42.1406C33.8476 42.2017 35.3717 42.3325 36.5279 42.4761C36.7942 42.5092 37.0234 42.5262 37.0394 42.5141L32.0267 28.293V28.2956L31.5627 26.9865C31.1094 25.7073 30.8067 24.8518 28.9853 19.7022C28.4956 18.3175 28.08 17.1431 28.0618 17.0923L28.0286 17L23.0001 17Z" fill="#E50914"/>
<path d="M78.464 26.72L77.6 26.816V16H79.648V28H76.96L68.544 17.184L69.392 17.088V28H67.344V16H70.096L78.464 26.72ZM86.9074 28.224C85.8514 28.224 84.9127 28.0267 84.0914 27.632C83.27 27.2267 82.6247 26.6667 82.1554 25.952C81.686 25.2373 81.4514 24.4053 81.4514 23.456C81.4514 22.5173 81.67 21.696 82.1074 20.992C82.5554 20.2773 83.1687 19.7227 83.9474 19.328C84.7367 18.9227 85.638 18.72 86.6514 18.72C87.6647 18.72 88.5394 18.9493 89.2754 19.408C90.022 19.856 90.598 20.4907 91.0034 21.312C91.4087 22.1333 91.6114 23.0987 91.6114 24.208H83.0834V22.624H90.5714L89.5314 23.216C89.4994 22.6187 89.3554 22.1067 89.0994 21.68C88.854 21.2533 88.518 20.928 88.0914 20.704C87.6754 20.4693 87.1794 20.352 86.6034 20.352C85.9954 20.352 85.462 20.4747 85.0034 20.72C84.5554 20.9653 84.2034 21.312 83.9474 21.76C83.6914 22.1973 83.5634 22.72 83.5634 23.328C83.5634 24 83.7127 24.5813 84.0114 25.072C84.3207 25.5627 84.7527 25.9413 85.3074 26.208C85.8727 26.464 86.5394 26.592 87.3074 26.592C88.0007 26.592 88.71 26.4853 89.4354 26.272C90.1607 26.048 90.8007 25.7387 91.3554 25.344V26.848C90.8007 27.2747 90.1234 27.6107 89.3234 27.856C88.534 28.1013 87.7287 28.224 86.9074 28.224ZM92.1113 20.544V19.6L94.0473 19.104L94.9113 16.576H96.1273V18.944H100.335V20.544H96.1273V24.464C96.1273 25.2213 96.2873 25.7547 96.6073 26.064C96.9379 26.3627 97.4713 26.512 98.2073 26.512C98.6766 26.512 99.0926 26.464 99.4553 26.368C99.8179 26.2613 100.165 26.112 100.495 25.92V27.632C100.218 27.7707 99.8233 27.904 99.3113 28.032C98.8099 28.16 98.2926 28.224 97.7593 28.224C96.8739 28.224 96.1593 28.08 95.6153 27.792C95.0713 27.4933 94.6713 27.088 94.4153 26.576C94.1699 26.0533 94.0473 25.456 94.0473 24.784V20.544H92.1113ZM107.594 17.072C106.858 17.072 106.309 17.2213 105.946 17.52C105.594 17.8187 105.418 18.3253 105.418 19.04V28H103.338V19.296C103.338 18.528 103.482 17.856 103.77 17.28C104.058 16.704 104.496 16.256 105.082 15.936C105.68 15.616 106.442 15.456 107.37 15.456C107.786 15.456 108.16 15.4933 108.49 15.568C108.821 15.6427 109.136 15.7387 109.434 15.856V17.488C109.157 17.3387 108.869 17.232 108.57 17.168C108.272 17.104 107.946 17.072 107.594 17.072ZM101.402 21.168V19.568H109.386V21.168H101.402ZM111.066 15.68H113.146V28H111.066V15.68ZM115.354 18.88L116.394 19.072L117.434 18.88V28H115.354V18.88ZM116.394 17.744C115.999 17.744 115.674 17.6373 115.418 17.424C115.162 17.2 115.034 16.912 115.034 16.56C115.034 16.208 115.162 15.9253 115.418 15.712C115.674 15.488 115.999 15.376 116.394 15.376C116.799 15.376 117.125 15.488 117.37 15.712C117.626 15.9253 117.754 16.208 117.754 16.56C117.754 16.912 117.626 17.2 117.37 17.424C117.125 17.6373 116.799 17.744 116.394 17.744ZM118.435 28L122.803 22.832L122.787 23.856L118.691 18.944H121.075L124.179 22.624H123.299L126.419 18.944H128.723L124.547 23.888L124.467 22.688L128.979 28H126.595L123.203 24.032H124.115L120.755 28H118.435Z" fill="white"/>
<path d="M69.125 45H66.8807V37.7273H69.2244C69.9299 37.7273 70.5336 37.8729 71.0355 38.1641C71.5374 38.4529 71.9221 38.8684 72.1896 39.4105C72.4571 39.9503 72.5909 40.5966 72.5909 41.3494C72.5909 42.107 72.456 42.7592 72.1861 43.3061C71.9162 43.8506 71.5232 44.2696 71.0071 44.5632C70.491 44.8544 69.8636 45 69.125 45ZM67.7614 44.2188H69.0682C69.6695 44.2188 70.1679 44.1027 70.5632 43.8707C70.9586 43.6387 71.2533 43.3085 71.4474 42.88C71.6416 42.4515 71.7386 41.9413 71.7386 41.3494C71.7386 40.7623 71.6428 40.2569 71.451 39.8331C71.2592 39.407 70.9728 39.0803 70.5916 38.853C70.2105 38.6233 69.7358 38.5085 69.1676 38.5085H67.7614V44.2188ZM77.392 42.7699V39.5455H78.2301V45H77.392V44.0767H77.3352C77.2074 44.3537 77.0085 44.5893 76.7386 44.7834C76.4688 44.9751 76.1278 45.071 75.7159 45.071C75.375 45.071 75.072 44.9964 74.8068 44.8473C74.5417 44.6958 74.3333 44.4685 74.1818 44.1655C74.0303 43.8601 73.9545 43.4754 73.9545 43.0114V39.5455H74.7926V42.9545C74.7926 43.3523 74.9039 43.6695 75.1264 43.9062C75.3513 44.143 75.6378 44.2614 75.9858 44.2614C76.1941 44.2614 76.406 44.2081 76.6214 44.1016C76.8393 43.995 77.0215 43.8317 77.1683 43.6115C77.3175 43.3913 77.392 43.1108 77.392 42.7699ZM82.052 45.1136C81.5265 45.1136 81.0731 44.9976 80.6919 44.7656C80.3132 44.5312 80.0208 44.2045 79.8148 43.7855C79.6112 43.3641 79.5094 42.8741 79.5094 42.3153C79.5094 41.7566 79.6112 41.2642 79.8148 40.8381C80.0208 40.4096 80.3072 40.0758 80.6742 39.8366C81.0435 39.5952 81.4744 39.4744 81.9668 39.4744C82.2509 39.4744 82.5314 39.5218 82.8084 39.6165C83.0854 39.7112 83.3375 39.8651 83.5648 40.0781C83.7921 40.2888 83.9732 40.5682 84.1081 40.9162C84.2431 41.2642 84.3105 41.6927 84.3105 42.2017V42.5568H80.106V41.8324H83.4583C83.4583 41.5246 83.3967 41.25 83.2736 41.0085C83.1529 40.767 82.9801 40.5765 82.7551 40.4368C82.5326 40.2971 82.2698 40.2273 81.9668 40.2273C81.633 40.2273 81.3442 40.3101 81.1003 40.4759C80.8588 40.6392 80.673 40.8523 80.5428 41.1151C80.4126 41.3778 80.3475 41.6596 80.3475 41.9602V42.4432C80.3475 42.8551 80.4185 43.2043 80.5605 43.4908C80.705 43.7749 80.905 43.9915 81.1607 44.1406C81.4164 44.2874 81.7135 44.3608 82.052 44.3608C82.2722 44.3608 82.4711 44.33 82.6486 44.2685C82.8285 44.2045 82.9836 44.1098 83.1138 43.9844C83.244 43.8565 83.3446 43.6979 83.4157 43.5085L84.2253 43.7358C84.1401 44.0104 83.9969 44.2519 83.7956 44.4602C83.5944 44.6662 83.3458 44.8272 83.0499 44.9432C82.754 45.0568 82.4213 45.1136 82.052 45.1136ZM86.1962 45.0568C86.021 45.0568 85.8707 44.9941 85.7452 44.8686C85.6197 44.7431 85.557 44.5928 85.557 44.4176C85.557 44.2424 85.6197 44.0921 85.7452 43.9666C85.8707 43.8411 86.021 43.7784 86.1962 43.7784C86.3714 43.7784 86.5217 43.8411 86.6472 43.9666C86.7727 44.0921 86.8354 44.2424 86.8354 44.4176C86.8354 44.5336 86.8058 44.6402 86.7466 44.7372C86.6898 44.8343 86.6129 44.9124 86.5158 44.9716C86.4211 45.0284 86.3146 45.0568 86.1962 45.0568ZM86.1962 41.0085C86.021 41.0085 85.8707 40.9458 85.7452 40.8203C85.6197 40.6948 85.557 40.5445 85.557 40.3693C85.557 40.1941 85.6197 40.0438 85.7452 39.9183C85.8707 39.7929 86.021 39.7301 86.1962 39.7301C86.3714 39.7301 86.5217 39.7929 86.6472 39.9183C86.7727 40.0438 86.8354 40.1941 86.8354 40.3693C86.8354 40.4853 86.8058 40.5919 86.7466 40.6889C86.6898 40.786 86.6129 40.8641 86.5158 40.9233C86.4211 40.9801 86.3146 41.0085 86.1962 41.0085ZM91.2654 37.7273H92.3166L94.7882 43.7642H94.8734L97.345 37.7273H98.3961V45H97.5723V39.4744H97.5012L95.2285 45H94.4331L92.1603 39.4744H92.0893V45H91.2654V37.7273ZM101.653 45.1278C101.308 45.1278 100.994 45.0627 100.712 44.9325C100.431 44.8 100.207 44.6094 100.041 44.3608C99.8755 44.1098 99.7926 43.8068 99.7926 43.4517C99.7926 43.1392 99.8542 42.8859 99.9773 42.6918C100.1 42.4953 100.265 42.3414 100.471 42.2301C100.677 42.1188 100.904 42.036 101.153 41.9815C101.404 41.9247 101.656 41.8797 101.909 41.8466C102.241 41.804 102.509 41.772 102.715 41.7507C102.924 41.727 103.075 41.688 103.17 41.6335C103.267 41.5791 103.315 41.4844 103.315 41.3494V41.321C103.315 40.9706 103.219 40.6984 103.028 40.5043C102.838 40.3101 102.551 40.2131 102.165 40.2131C101.765 40.2131 101.451 40.3007 101.224 40.4759C100.996 40.651 100.837 40.8381 100.744 41.0369L99.9489 40.7528C100.091 40.4214 100.28 40.1634 100.517 39.9787C100.756 39.7917 101.017 39.6615 101.298 39.5881C101.582 39.5123 101.862 39.4744 102.136 39.4744C102.312 39.4744 102.513 39.4957 102.74 39.5384C102.97 39.5786 103.191 39.6626 103.404 39.7905C103.62 39.9183 103.798 40.1113 103.94 40.3693C104.082 40.6274 104.153 40.973 104.153 41.4062V45H103.315V44.2614H103.273C103.216 44.3797 103.121 44.5064 102.989 44.6413C102.856 44.7763 102.68 44.8911 102.46 44.9858C102.239 45.0805 101.971 45.1278 101.653 45.1278ZM101.781 44.375C102.113 44.375 102.392 44.3099 102.619 44.1797C102.849 44.0495 103.022 43.8814 103.138 43.6754C103.256 43.4695 103.315 43.2528 103.315 43.0256V42.2585C103.28 42.3011 103.202 42.3402 103.081 42.3757C102.963 42.4089 102.825 42.4384 102.669 42.4645C102.515 42.4882 102.365 42.5095 102.218 42.5284C102.074 42.545 101.956 42.5592 101.866 42.571C101.649 42.5994 101.445 42.6456 101.256 42.7095C101.069 42.7711 100.917 42.8646 100.801 42.9901C100.688 43.1132 100.631 43.2812 100.631 43.4943C100.631 43.7855 100.738 44.0057 100.954 44.1548C101.172 44.3016 101.447 44.375 101.781 44.375ZM106.028 47.0455C105.885 47.0455 105.759 47.0336 105.648 47.0099C105.536 46.9886 105.459 46.9673 105.417 46.946L105.63 46.2074C105.833 46.2595 106.013 46.2784 106.17 46.2642C106.326 46.25 106.464 46.1802 106.585 46.0547C106.708 45.9316 106.821 45.7315 106.922 45.4545L107.079 45.0284L105.062 39.5455H105.971L107.476 43.892H107.533L109.039 39.5455H109.948L107.633 45.7955C107.528 46.0772 107.399 46.3104 107.246 46.495C107.092 46.6821 106.913 46.8205 106.709 46.9105C106.508 47.0005 106.281 47.0455 106.028 47.0455ZM116.409 37.7273V45H115.529V38.6506H115.486L113.71 39.8295V38.9347L115.529 37.7273H116.409ZM120.774 45.0994C120.357 45.0994 119.982 45.0166 119.648 44.8509C119.314 44.6851 119.047 44.4579 118.845 44.169C118.644 43.8802 118.534 43.5511 118.515 43.1818H119.367C119.401 43.5109 119.55 43.7831 119.815 43.9986C120.082 44.2116 120.402 44.3182 120.774 44.3182C121.072 44.3182 121.337 44.2483 121.569 44.1087C121.803 43.969 121.987 43.7772 122.119 43.5334C122.254 43.2872 122.322 43.009 122.322 42.6989C122.322 42.3816 122.252 42.0987 122.112 41.8501C121.975 41.5992 121.786 41.4015 121.544 41.2571C121.303 41.1127 121.027 41.0393 120.717 41.0369C120.494 41.0346 120.266 41.0689 120.031 41.1399C119.797 41.2086 119.604 41.2973 119.453 41.4062L118.629 41.3068L119.069 37.7273H122.847V38.5085H119.808L119.552 40.6534H119.595C119.744 40.535 119.931 40.4368 120.156 40.3587C120.381 40.2805 120.615 40.2415 120.859 40.2415C121.304 40.2415 121.7 40.348 122.048 40.5611C122.399 40.7718 122.673 41.0606 122.872 41.4276C123.074 41.7945 123.174 42.2135 123.174 42.6847C123.174 43.1487 123.07 43.563 122.862 43.9276C122.656 44.2898 122.372 44.5762 122.009 44.7869C121.647 44.9953 121.235 45.0994 120.774 45.0994ZM125.576 44.0057L125.519 44.3892C125.479 44.6591 125.417 44.9479 125.334 45.2557C125.254 45.5634 125.17 45.8535 125.082 46.1257C124.994 46.398 124.922 46.6146 124.865 46.7756H124.226C124.257 46.6241 124.297 46.424 124.347 46.1754C124.397 45.9268 124.446 45.6487 124.496 45.3409C124.548 45.0355 124.591 44.723 124.624 44.4034L124.667 44.0057H125.576ZM129.927 45V44.3608L132.327 41.733C132.609 41.4252 132.841 41.1577 133.023 40.9304C133.206 40.7008 133.34 40.4853 133.428 40.2841C133.518 40.0805 133.563 39.8674 133.563 39.6449C133.563 39.3892 133.501 39.1679 133.378 38.9808C133.258 38.7938 133.092 38.6494 132.881 38.5476C132.671 38.4458 132.434 38.3949 132.171 38.3949C131.892 38.3949 131.648 38.4529 131.439 38.5689C131.233 38.6825 131.074 38.8423 130.96 39.0483C130.849 39.2543 130.793 39.4957 130.793 39.7727H129.955C129.955 39.3466 130.053 38.9725 130.25 38.6506C130.446 38.3286 130.714 38.0777 131.052 37.8977C131.393 37.7178 131.776 37.6278 132.199 37.6278C132.626 37.6278 133.003 37.7178 133.332 37.8977C133.661 38.0777 133.919 38.3203 134.106 38.6257C134.293 38.9311 134.387 39.2708 134.387 39.6449C134.387 39.9124 134.338 40.174 134.241 40.4297C134.147 40.683 133.981 40.9659 133.744 41.2784C133.51 41.5885 133.184 41.9673 132.768 42.4148L131.134 44.1619V44.2188H134.515V45H129.927ZM138.354 45.0994C137.818 45.0994 137.363 44.9538 136.986 44.6626C136.61 44.3691 136.322 43.9441 136.123 43.3878C135.925 42.8291 135.825 42.1544 135.825 41.3636C135.825 40.5777 135.925 39.9065 136.123 39.3501C136.325 38.7914 136.613 38.3653 136.99 38.0717C137.369 37.7758 137.823 37.6278 138.354 37.6278C138.884 37.6278 139.337 37.7758 139.714 38.0717C140.092 38.3653 140.381 38.7914 140.58 39.3501C140.781 39.9065 140.882 40.5777 140.882 41.3636C140.882 42.1544 140.782 42.8291 140.584 43.3878C140.385 43.9441 140.097 44.3691 139.721 44.6626C139.344 44.9538 138.889 45.0994 138.354 45.0994ZM138.354 44.3182C138.884 44.3182 139.296 44.0625 139.589 43.5511C139.883 43.0398 140.03 42.3106 140.03 41.3636C140.03 40.7339 139.962 40.1977 139.827 39.755C139.695 39.3123 139.503 38.9749 139.252 38.7429C139.003 38.5109 138.704 38.3949 138.354 38.3949C137.828 38.3949 137.417 38.6541 137.121 39.1726C136.825 39.6887 136.677 40.419 136.677 41.3636C136.677 41.9934 136.744 42.5284 136.876 42.9688C137.009 43.4091 137.199 43.7441 137.448 43.9737C137.699 44.2034 138.001 44.3182 138.354 44.3182ZM142.231 45V44.3608L144.632 41.733C144.914 41.4252 145.146 41.1577 145.328 40.9304C145.51 40.7008 145.645 40.4853 145.733 40.2841C145.823 40.0805 145.868 39.8674 145.868 39.6449C145.868 39.3892 145.806 39.1679 145.683 38.9808C145.562 38.7938 145.397 38.6494 145.186 38.5476C144.975 38.4458 144.738 38.3949 144.476 38.3949C144.196 38.3949 143.952 38.4529 143.744 38.5689C143.538 38.6825 143.378 38.8423 143.265 39.0483C143.153 39.2543 143.098 39.4957 143.098 39.7727H142.26C142.26 39.3466 142.358 38.9725 142.555 38.6506C142.751 38.3286 143.019 38.0777 143.357 37.8977C143.698 37.7178 144.08 37.6278 144.504 37.6278C144.93 37.6278 145.308 37.7178 145.637 37.8977C145.966 38.0777 146.224 38.3203 146.411 38.6257C146.598 38.9311 146.692 39.2708 146.692 39.6449C146.692 39.9124 146.643 40.174 146.546 40.4297C146.451 40.683 146.286 40.9659 146.049 41.2784C145.814 41.5885 145.489 41.9673 145.072 42.4148L143.439 44.1619V44.2188H146.819V45H142.231ZM147.959 43.5085V42.7841L151.155 37.7273H151.681V38.8494H151.326L148.911 42.6705V42.7273H153.215V43.5085H147.959ZM151.383 45V43.2884V42.951V37.7273H152.221V45H151.383Z" fill="#838383"/>
<path d="M200.402 45L197.724 41.464H196.112V40.346H198.062C198.521 40.346 198.898 40.2507 199.193 40.06C199.487 39.8693 199.643 39.5573 199.661 39.124H196.112V38.097H199.635C199.591 37.7417 199.422 37.4773 199.128 37.304C198.842 37.1307 198.486 37.044 198.062 37.044H196.112V35.926H202.69V37.044H200.103V37.109C200.276 37.1697 200.441 37.278 200.597 37.434C200.761 37.59 200.887 37.811 200.974 38.097H202.69V39.124H201.078C201.034 39.67 200.857 40.1293 200.545 40.502C200.241 40.8747 199.821 41.1347 199.284 41.282L202.144 45H200.402ZM207.156 45.156C206.645 45.156 206.19 45.0737 205.791 44.909C205.393 44.7443 205.055 44.5103 204.777 44.207C204.5 43.895 204.288 43.5223 204.14 43.089C203.993 42.6557 203.919 42.166 203.919 41.62C203.919 40.9613 204.019 40.3417 204.218 39.761C204.418 39.1803 204.678 38.6473 204.998 38.162C205.319 37.6767 205.674 37.2477 206.064 36.875C206.454 36.4937 206.84 36.1773 207.221 35.926H209.171C208.651 36.2987 208.183 36.6583 207.767 37.005C207.351 37.3517 206.987 37.707 206.675 38.071C206.372 38.435 206.116 38.8207 205.908 39.228C205.7 39.6267 205.54 40.073 205.427 40.567L205.518 40.593C205.614 40.411 205.726 40.242 205.856 40.086C205.986 39.9213 206.138 39.7783 206.311 39.657C206.485 39.5357 206.684 39.4403 206.909 39.371C207.135 39.3017 207.39 39.267 207.676 39.267C208.066 39.267 208.426 39.332 208.755 39.462C209.085 39.592 209.371 39.7827 209.613 40.034C209.856 40.2767 210.042 40.5713 210.172 40.918C210.311 41.2647 210.38 41.6547 210.38 42.088C210.38 42.5387 210.302 42.9547 210.146 43.336C209.999 43.7087 209.782 44.0293 209.496 44.298C209.219 44.5667 208.881 44.779 208.482 44.935C208.084 45.0823 207.642 45.156 207.156 45.156ZM207.143 43.986C207.698 43.986 208.127 43.8387 208.43 43.544C208.734 43.2407 208.885 42.816 208.885 42.27V42.14C208.885 41.594 208.734 41.1737 208.43 40.879C208.127 40.5757 207.698 40.424 207.143 40.424C206.597 40.424 206.173 40.5757 205.869 40.879C205.566 41.1737 205.414 41.594 205.414 42.14V42.27C205.414 42.816 205.566 43.2407 205.869 43.544C206.173 43.8387 206.597 43.986 207.143 43.986ZM215.731 45V43.232H211.415V41.984L215.211 35.926H217.122V42.088H218.396V43.232H217.122V45H215.731ZM212.65 42.088H215.731V37.265H215.653L212.65 42.088ZM225.931 39.306C225.931 39.9647 225.832 40.5843 225.632 41.165C225.433 41.7457 225.173 42.2787 224.852 42.764C224.532 43.2493 224.176 43.6827 223.786 44.064C223.396 44.4453 223.011 44.7573 222.629 45H220.679C221.199 44.6273 221.667 44.2677 222.083 43.921C222.499 43.5743 222.859 43.219 223.162 42.855C223.474 42.491 223.734 42.1097 223.942 41.711C224.15 41.3037 224.311 40.853 224.423 40.359L224.332 40.333C224.237 40.515 224.124 40.6883 223.994 40.853C223.864 41.009 223.713 41.1477 223.539 41.269C223.366 41.3903 223.167 41.4857 222.941 41.555C222.716 41.6243 222.46 41.659 222.174 41.659C221.784 41.659 221.425 41.594 221.095 41.464C220.766 41.334 220.48 41.1477 220.237 40.905C219.995 40.6537 219.804 40.3547 219.665 40.008C219.535 39.6613 219.47 39.2713 219.47 38.838C219.47 38.3873 219.544 37.9757 219.691 37.603C219.847 37.2217 220.064 36.8967 220.341 36.628C220.627 36.3593 220.97 36.1513 221.368 36.004C221.767 35.848 222.209 35.77 222.694 35.77C223.197 35.77 223.648 35.8523 224.046 36.017C224.454 36.1817 224.796 36.42 225.073 36.732C225.351 37.0353 225.563 37.4037 225.71 37.837C225.858 38.2703 225.931 38.76 225.931 39.306ZM222.707 40.502C223.253 40.502 223.678 40.3547 223.981 40.06C224.285 39.7567 224.436 39.332 224.436 38.786V38.656C224.436 38.11 224.285 37.6897 223.981 37.395C223.678 37.0917 223.253 36.94 222.707 36.94C222.153 36.94 221.724 37.0917 221.42 37.395C221.117 37.6897 220.965 38.11 220.965 38.656V38.786C220.965 39.332 221.117 39.7567 221.42 40.06C221.724 40.3547 222.153 40.502 222.707 40.502ZM230.515 45.13C230.099 45.13 229.805 45.0433 229.631 44.87C229.467 44.6967 229.384 44.4843 229.384 44.233V43.895C229.384 43.6437 229.467 43.4313 229.631 43.258C229.805 43.0847 230.099 42.998 230.515 42.998C230.931 42.998 231.222 43.0847 231.386 43.258C231.56 43.4313 231.646 43.6437 231.646 43.895V44.233C231.646 44.4843 231.56 44.6967 231.386 44.87C231.222 45.0433 230.931 45.13 230.515 45.13ZM238.31 45.156C237.738 45.156 237.24 45.052 236.815 44.844C236.399 44.6273 236.052 44.3197 235.775 43.921C235.506 43.5223 235.307 43.0327 235.177 42.452C235.047 41.8713 234.982 41.2083 234.982 40.463C234.982 39.7263 235.047 39.0677 235.177 38.487C235.307 37.8977 235.506 37.4037 235.775 37.005C236.052 36.6063 236.399 36.303 236.815 36.095C237.24 35.8783 237.738 35.77 238.31 35.77C238.882 35.77 239.376 35.8783 239.792 36.095C240.217 36.303 240.563 36.6063 240.832 37.005C241.109 37.4037 241.313 37.8977 241.443 38.487C241.573 39.0677 241.638 39.7263 241.638 40.463C241.638 41.2083 241.573 41.8713 241.443 42.452C241.313 43.0327 241.109 43.5223 240.832 43.921C240.563 44.3197 240.217 44.6273 239.792 44.844C239.376 45.052 238.882 45.156 238.31 45.156ZM238.31 43.96C238.969 43.96 239.437 43.7173 239.714 43.232C240 42.738 240.143 42.075 240.143 41.243V39.683C240.143 38.851 240 38.1923 239.714 37.707C239.437 37.213 238.969 36.966 238.31 36.966C237.981 36.966 237.699 37.031 237.465 37.161C237.231 37.2823 237.04 37.4643 236.893 37.707C236.746 37.941 236.637 38.227 236.568 38.565C236.507 38.8943 236.477 39.267 236.477 39.683V41.243C236.477 41.659 236.507 42.036 236.568 42.374C236.637 42.7033 236.746 42.9893 236.893 43.232C237.04 43.466 237.231 43.648 237.465 43.778C237.699 43.8993 237.981 43.96 238.31 43.96ZM238.31 41.23C238.007 41.23 237.794 41.1693 237.673 41.048C237.56 40.9267 237.504 40.7793 237.504 40.606V40.32C237.504 40.1467 237.56 39.9993 237.673 39.878C237.794 39.7567 238.007 39.696 238.31 39.696C238.613 39.696 238.821 39.7567 238.934 39.878C239.055 39.9993 239.116 40.1467 239.116 40.32V40.606C239.116 40.7793 239.055 40.9267 238.934 41.048C238.821 41.1693 238.613 41.23 238.31 41.23ZM246.105 45.156C245.533 45.156 245.035 45.052 244.61 44.844C244.194 44.6273 243.847 44.3197 243.57 43.921C243.301 43.5223 243.102 43.0327 242.972 42.452C242.842 41.8713 242.777 41.2083 242.777 40.463C242.777 39.7263 242.842 39.0677 242.972 38.487C243.102 37.8977 243.301 37.4037 243.57 37.005C243.847 36.6063 244.194 36.303 244.61 36.095C245.035 35.8783 245.533 35.77 246.105 35.77C246.677 35.77 247.171 35.8783 247.587 36.095C248.012 36.303 248.358 36.6063 248.627 37.005C248.904 37.4037 249.108 37.8977 249.238 38.487C249.368 39.0677 249.433 39.7263 249.433 40.463C249.433 41.2083 249.368 41.8713 249.238 42.452C249.108 43.0327 248.904 43.5223 248.627 43.921C248.358 44.3197 248.012 44.6273 247.587 44.844C247.171 45.052 246.677 45.156 246.105 45.156ZM246.105 43.96C246.764 43.96 247.232 43.7173 247.509 43.232C247.795 42.738 247.938 42.075 247.938 41.243V39.683C247.938 38.851 247.795 38.1923 247.509 37.707C247.232 37.213 246.764 36.966 246.105 36.966C245.776 36.966 245.494 37.031 245.26 37.161C245.026 37.2823 244.835 37.4643 244.688 37.707C244.541 37.941 244.432 38.227 244.363 38.565C244.302 38.8943 244.272 39.267 244.272 39.683V41.243C244.272 41.659 244.302 42.036 244.363 42.374C244.432 42.7033 244.541 42.9893 244.688 43.232C244.835 43.466 245.026 43.648 245.26 43.778C245.494 43.8993 245.776 43.96 246.105 43.96ZM246.105 41.23C245.802 41.23 245.589 41.1693 245.468 41.048C245.355 40.9267 245.299 40.7793 245.299 40.606V40.32C245.299 40.1467 245.355 39.9993 245.468 39.878C245.589 39.7567 245.802 39.696 246.105 39.696C246.408 39.696 246.616 39.7567 246.729 39.878C246.85 39.9993 246.911 40.1467 246.911 40.32V40.606C246.911 40.7793 246.85 40.9267 246.729 41.048C246.616 41.1693 246.408 41.23 246.105 41.23Z" fill="white"/>
<rect x="193" y="12" width="57" height="17" rx="3" fill="#4D4B3C"/>
<path d="M199.98 17.4545H201.179L203.263 22.5426H203.339L205.423 17.4545H206.622V24H205.682V19.2635H205.621L203.691 23.9904H202.911L200.981 19.2603H200.92V24H199.98V17.4545ZM213.653 20.7273C213.653 21.4261 213.525 22.027 213.27 22.5298C213.014 23.0305 212.663 23.4162 212.218 23.6868C211.775 23.9553 211.271 24.0895 210.706 24.0895C210.14 24.0895 209.634 23.9553 209.188 23.6868C208.745 23.4162 208.396 23.0295 208.14 22.5266C207.884 22.0238 207.757 21.424 207.757 20.7273C207.757 20.0284 207.884 19.4286 208.14 18.9279C208.396 18.4251 208.745 18.0394 209.188 17.771C209.634 17.5004 210.14 17.3651 210.706 17.3651C211.271 17.3651 211.775 17.5004 212.218 17.771C212.663 18.0394 213.014 18.4251 213.27 18.9279C213.525 19.4286 213.653 20.0284 213.653 20.7273ZM212.675 20.7273C212.675 20.1946 212.589 19.7461 212.416 19.3817C212.246 19.0153 212.011 18.7383 211.713 18.5508C211.417 18.3612 211.081 18.2663 210.706 18.2663C210.329 18.2663 209.993 18.3612 209.697 18.5508C209.4 18.7383 209.166 19.0153 208.993 19.3817C208.823 19.7461 208.738 20.1946 208.738 20.7273C208.738 21.2599 208.823 21.7095 208.993 22.076C209.166 22.4403 209.4 22.7173 209.697 22.907C209.993 23.0945 210.329 23.1882 210.706 23.1882C211.081 23.1882 211.417 23.0945 211.713 22.907C212.011 22.7173 212.246 22.4403 212.416 22.076C212.589 21.7095 212.675 21.2599 212.675 20.7273ZM220.077 17.4545V24H219.17L215.843 19.1996H215.782V24H214.794V17.4545H215.709L219.039 22.2614H219.099V17.4545H220.077ZM221.105 18.3047V17.4545H226.171V18.3047H224.129V24H223.144V18.3047H221.105ZM227.2 24V17.4545H228.188V20.299H231.451V17.4545H232.442V24H231.451V21.146H228.188V24H227.2ZM233.79 24V17.4545H234.778V23.1499H237.744V24H233.79ZM237.792 17.4545H238.914L240.623 20.43H240.694L242.404 17.4545H243.525L241.151 21.4304V24H240.166V21.4304L237.792 17.4545Z" fill="#FFF7E0"/>
<circle cx="50" cy="10" r="6" fill="#2E2E2E"/>
<circle cx="50" cy="10" r="6" fill="#252525"/>
<circle cx="50" cy="10" r="4" fill="#27CD74"/>
<circle cx="50" cy="10" r="4" fill="#27CD74"/>
</g>
<defs>
<filter id="filter0_b_32_7" x="-5" y="-5" width="270" height="70" filterUnits="userSpaceOnUse" color-interpolation-filters="sRGB">
<feFlood flood-opacity="0" result="BackgroundImageFix"/>
<feGaussianBlur in="BackgroundImageFix" stdDeviation="2.5"/>
<feComposite in2="SourceAlpha" operator="in" result="effect1_backgroundBlur_32_7"/>
<feBlend mode="normal" in="SourceGraphic" in2="effect1_backgroundBlur_32_7" result="shape"/>
</filter>
<radialGradient id="paint0_radial_32_7" cx="0" cy="0" r="1" gradientUnits="userSpaceOnUse" gradientTransform="translate(29.7952 29.6107) rotate(-19.0977) scale(3.18616 116.706)">
<stop/>
<stop offset="1" stop-opacity="0"/>
</radialGradient>
<radialGradient id="paint1_radial_32_7" cx="0" cy="0" r="1" gradientUnits="userSpaceOnUse" gradientTransform="translate(29.7952 29.6107) rotate(-19.0977) scale(3.18616 116.706)">
<stop/>
<stop offset="1" stop-opacity="0"/>
</radialGradient>
<clipPath id="clip0_32_7">
<rect width="260" height="60" fill="white"/>
</clipPath>
</defs>
</svg>
