<svg xmlns="http://www.w3.org/2000/svg" version="1.1" xmlns:xlink="http://www.w3.org/1999/xlink" xmlns:svgjs="http://svgjs.dev/svgjs" viewBox="0 0 1422 800" opacity="0.36"><defs><linearGradient x1="50%" y1="0%" x2="50%" y2="100%" id="oooscillate-grad"><stop stop-color="hsl(206, 75%, 49%)" stop-opacity="1" offset="0%"></stop><stop stop-color="hsl(331, 90%, 56%)" stop-opacity="1" offset="100%"></stop></linearGradient></defs><g stroke-width="2.5" stroke="url(#oooscillate-grad)" fill="none" stroke-linecap="round"><path d="M 0 504 Q 355.5 240 711 400 Q 1066.5 560 1422 504" opacity="0.59"></path><path d="M 0 476 Q 355.5 240 711 400 Q 1066.5 560 1422 476" opacity="0.22"></path><path d="M 0 448 Q 355.5 240 711 400 Q 1066.5 560 1422 448" opacity="0.38"></path><path d="M 0 420 Q 355.5 240 711 400 Q 1066.5 560 1422 420" opacity="0.30"></path><path d="M 0 392 Q 355.5 240 711 400 Q 1066.5 560 1422 392" opacity="0.56"></path><path d="M 0 364 Q 355.5 240 711 400 Q 1066.5 560 1422 364" opacity="0.61"></path><path d="M 0 336 Q 355.5 240 711 400 Q 1066.5 560 1422 336" opacity="0.59"></path><path d="M 0 308 Q 355.5 240 711 400 Q 1066.5 560 1422 308" opacity="0.63"></path><path d="M 0 280 Q 355.5 240 711 400 Q 1066.5 560 1422 280" opacity="0.32"></path><path d="M 0 252 Q 355.5 240 711 400 Q 1066.5 560 1422 252" opacity="0.14"></path><path d="M 0 224 Q 355.5 240 711 400 Q 1066.5 560 1422 224" opacity="0.39"></path><path d="M 0 196 Q 355.5 240 711 400 Q 1066.5 560 1422 196" opacity="0.89"></path><path d="M 0 168 Q 355.5 240 711 400 Q 1066.5 560 1422 168" opacity="0.57"></path><path d="M 0 140 Q 355.5 240 711 400 Q 1066.5 560 1422 140" opacity="0.23"></path><path d="M 0 112 Q 355.5 240 711 400 Q 1066.5 560 1422 112" opacity="0.65"></path><path d="M 0 84 Q 355.5 240 711 400 Q 1066.5 560 1422 84" opacity="0.39"></path><path d="M 0 56 Q 355.5 240 711 400 Q 1066.5 560 1422 56" opacity="0.65"></path></g></svg>